<svg width="226" height="469" viewBox="0 0 226 469" fill="none" xmlns="http://www.w3.org/2000/svg">
<path d="M139.437 151.695C129.134 84.3425 111.023 3.95948 82.8182 0.216379C82.5618 0.169591 82.3287 0.0994132 82.0723 0.0760188H81.6527V0.0526373C81.0467 -0.0175458 80.8836 -0.0175458 80.2542 0.0526373H80.1842H80.0677C80.0444 0.0526373 79.9978 0.0526373 79.9745 0.0526373H79.8579C79.4383 0.0994261 78.9722 0.169601 78.4594 0.263178C50.6979 4.80169 32.7497 84.6701 22.4936 151.672C7.97186 246.606 0 372.468 0 506.096C0 552.721 0.979112 598.785 2.89048 643L9.88328 642.696C7.97192 598.574 6.99281 552.628 6.99281 506.12C6.99281 265.041 32.1902 86.9861 60.6043 28.1025C53.8679 49.2276 46.3624 86.5182 39.4162 152.514C29.4398 247.308 23.9621 372.889 23.9621 506.12C23.9621 552.768 24.638 598.808 25.9667 642.977L32.9595 642.766C31.6308 598.691 30.9549 552.721 30.9549 506.143C30.9549 373.146 36.4326 247.822 46.3857 153.286C53.6116 84.5999 61.4202 48.128 67.807 28.8043C63.8677 50.023 59.6021 87.22 55.6396 152.701C49.9288 247.425 46.7587 372.935 46.7587 506.143C46.7587 553.657 47.155 599.674 47.9242 642.953L54.917 642.836C54.1478 599.603 53.7515 553.634 53.7515 506.166C53.7515 263.754 63.4714 102.286 73.2846 37.9749C73.1914 39.5657 73.0981 41.2033 73.0049 42.8877C71.6297 68.2238 70.4176 104.508 69.3687 150.712C67.2009 245.577 66.0354 371.813 66.0354 506.166C66.0354 551.575 66.1753 597.592 66.455 642.93L73.4478 642.883C73.1681 597.568 73.0282 551.551 73.0282 506.166C73.0282 261.368 76.7811 85.8398 80.9768 26.8626C85.1492 85.8632 88.9252 261.391 88.9252 506.166C88.9252 551.692 88.7854 597.685 88.5057 642.883L95.4985 642.93C95.7782 597.709 95.918 551.692 95.918 506.166C95.918 372 94.7293 245.764 92.5615 150.712C91.5126 104.532 90.2772 68.2472 88.9252 42.8877C88.832 41.1331 88.7388 39.4487 88.6455 37.7877C98.4821 101.958 108.225 263.52 108.225 506.166C108.225 553.634 107.829 599.627 107.06 642.836L114.053 642.953C114.822 599.674 115.218 553.657 115.218 506.143C115.218 372.935 112.071 247.401 106.337 152.701C102.375 87.1967 98.1091 49.9996 94.1698 28.8043C100.557 48.1514 108.365 84.5999 115.591 153.286C125.544 247.822 131.022 373.146 131.022 506.143C131.022 552.721 130.346 598.691 129.017 642.766L136.01 642.977C137.339 598.808 138.015 552.768 138.015 506.12C138.015 372.889 132.514 247.308 122.561 152.514C119.857 126.827 113.33 64.6913 101.302 28.1493C129.81 87.0797 155.007 265.087 155.007 506.12C155.007 552.628 154.028 598.597 152.117 642.696L159.11 643C161.044 598.785 162 552.721 162 506.096C162 372.468 154.005 246.606 139.507 151.672L139.437 151.695Z" fill="#4F71B2"/>
<path d="M99.9999 373C108.284 373 115 344.57 115 309.5C115 274.43 108.284 246 99.9999 246C91.7157 246 85 274.43 85 309.5C85 344.57 91.7157 373 99.9999 373Z" fill="#121313"/>
<path d="M157.042 250.986C136.275 233.839 126.696 234.82 123.075 240.754C119.455 246.688 116.161 271.754 130.995 282.967C137.256 287.71 143.4 291.587 149.707 293.596C146.904 293.924 144.498 294.391 142.862 295.115C135.27 298.456 125.388 308.688 130.668 324.854C135.947 341.019 138.097 345.972 152.347 343.659C166.597 341.346 181.455 330.787 175.521 293.526C175.521 293.526 172.718 293.339 168.7 293.199C171.456 292.148 174.283 290.653 177.18 288.574C177.18 288.574 177.834 268.133 157.066 250.986H157.042Z" fill="#D54E28"/>
<path d="M174.517 332.771C174.517 332.771 175.498 306.397 186.384 276.378C197.27 246.359 205.19 237.785 210.119 239.444C215.048 241.103 222.313 257.572 210.119 276.378C197.924 295.183 194.28 297.496 194.28 297.496C194.28 297.496 201.872 292.217 211.427 292.544C220.982 292.871 226.261 297.823 224.953 303.103C223.645 308.382 214.394 332.444 195.611 336.089C176.829 339.733 174.493 332.795 174.493 332.795L174.517 332.771Z" fill="#D54E28"/>
<path d="M184.069 198.189C182.76 189.732 170.449 192.395 172.622 200.548C179.163 222.274 180.564 252.527 177.761 282.359C175.495 255.073 167.108 228.255 154.12 204.146C149.518 196.881 139.215 204.473 144.658 211.014C153.092 220.896 159.633 232.833 164.679 244.864C171.57 261.334 175.472 279.065 176.056 296.913C173.042 318.358 167.879 338.799 160.964 354.801C159.75 357.581 161.408 360.758 164.375 361.366C164.422 361.366 164.492 361.366 164.539 361.389C167.178 361.926 169.725 360.127 170.169 357.464C172.038 346.181 174.444 335.341 176.289 324.058C177.411 317.19 178.018 310.298 178.275 303.384C179.513 296.282 180.658 289.157 181.569 281.938C185.096 254.115 187.082 226.456 184.069 198.212V198.189Z" fill="#121313"/>
</svg>
