<?xml version="1.0" encoding="UTF-8"?>
<svg id="Layer_2" data-name="Layer 2" xmlns="http://www.w3.org/2000/svg" viewBox="0 0 67.77 59.91">
  <defs>
    <style>
      .cls-1 {
        fill: #1e1e1c;
        stroke-width: 0px;
      }
    </style>
  </defs>
  <path class="cls-1" d="m41.92,58.73C24.67,63.65,3.09,52.83.12,33.56c-.65-6.46,1.44-12.61,4.37-18.3C10.74,4.16,25.04.35,36.81.1c6.66-.44,17.46.28,22.17,7.46,1.36,1.89,2.38,3.43,3.71,5.09,4.99,6.53,6.96,15.99,2.86,23.51-2.91,5.53-7.07,12.02-13.92,13.39-3.78.47-7.22,1.68-11.13,1.57-8.87-.07-20.92-8.65-22.07-17.6-1.05-6.91,1.7-14.67,8-18.19,4.71-2.54,10.37-2.96,15.14-.71,7.75,3.12,12.77,13.86,6.91,20.81-2.19,2.45-5.63,3.7-8.83,2.69-2.69-.44-5.99-1.89-5.45-5.25.2-1.08.94-2.05,2.1-2.32,0,0,.53.67.53.67.58.75,1.58,1.37,1.86,2.27.28.88.49,2.42,1.55,2.86,2.27.8,4.89-.67,6.13-2.57,2.55-4.06-.25-9.55-4.1-11.61-5.47-2.99-13.75-2.98-16.19,3.83-1.18,3.04-1.34,7.03.52,9.75,2.01,2.65,4.66,4.94,7.56,6.5,4.8,2.78,9.04,1.85,14.13.73,2.47-.26,3.94-.69,5.74-2.41,2.37-2.28,4.6-5.92,5.98-9.18,2.12-5.59-.49-11.86-4.23-16.22-1.59-2.05-2.67-4.29-4.59-5.65-2.85-1.89-6.64-2.44-10.1-2.48-6.55-.07-13.52.49-19.41,2.81-9.19,3.54-13.16,9.95-14.62,19.48-.78,5.95,2.78,11.79,6.85,15.98,6.26,7.93,16.61,13.49,27.98,13.4h0Z"/>
</svg>