<?xml version="1.0" encoding="UTF-8"?>
<svg id="Layer_2" data-name="Layer 2" xmlns="http://www.w3.org/2000/svg" viewBox="0 0 175.6 175.6">
  <defs>
    <style>
      .cls-1 {
        fill: #1e1e1c;
      }

      .cls-1, .cls-2 {
        stroke-width: 0px;
      }

      .cls-2 {
        fill: #f1d335;
      }
    </style>
  </defs>
  <path class="cls-2" d="m175.6,87.8c0,44.65-33.33,81.52-76.48,87.08l-.14.02c-3.66.47-7.39.71-11.18.71-10.72,0-21-1.92-30.49-5.44-19.01-7.05-34.93-20.49-45.12-37.71C4.45,119.36,0,104.1,0,87.8c0-1.21.02-2.4.07-3.59H.07c.67-16.54,5.91-31.9,14.49-44.85h0C24.51,24.36,38.94,12.58,55.94,5.96c9.88-3.85,20.62-5.96,31.86-5.96,12.43,0,24.26,2.59,34.99,7.25,0,0,0,0,.01,0,4.54,1.97,8.87,4.32,12.98,7t.01,0c23.97,15.68,39.82,42.76,39.82,73.54Z"/>
  <polygon class="cls-1" points="87.16 87.93 56.73 111.63 24.78 90.01 35.47 52.94 74.03 51.66 87.16 87.93"/>
  <path class="cls-1" d="m136.9,40.84l-37.02-10.86-9.97-22.67,10.06-1.81c18.41-3.32,36.98,5,46.76,20.95h0s-9.83,14.39-9.83,14.39Z"/>
  <path class="cls-1" d="m163.6,109.9l-7.49,20.76-31.44,3.81-4.64-34.89,25.3-24.98,10.51,8.26c8.14,6.4,11.26,17.29,7.75,27.03Z"/>
  <path class="cls-1" d="m58.73,8.62s-25.66,17.21-27.93,21.11c-10.17,4.77-15.99,9.43-16.23,9.63C24.51,24.36,38.94,12.58,55.94,5.96c1.63,1.2,2.8,2.65,2.8,2.65Z"/>
  <path class="cls-1" d="m99.12,174.88l-.14.02c-3.66.47-7.39.71-11.18.71-10.72,0-21-1.92-30.49-5.44l-16.77-14.09,20.46-10.39s31.42,11.16,37.8,10.29c.85,13.74.32,18.91.32,18.91Z"/>
  <path class="cls-1" d="m14.56,133.66c-.78-.21-1.58-.63-2.38-1.21C4.45,119.36,0,104.1,0,87.8c0-1.21.02-2.4.07-3.59,2.09,6.21,5.16,14.13,7.67,15.67-1.3,6.5,2.92,31.51,6.82,33.78Z"/>
</svg>