<?xml version="1.0" encoding="UTF-8"?>
<svg id="Layer_2" data-name="Layer 2" xmlns="http://www.w3.org/2000/svg" viewBox="0 0 69.47 274.86">
  <defs>
    <style>
      .cls-1 {
        fill: #5571b4;
        stroke-width: 0px;
      }
    </style>
  </defs>
  <path class="cls-1" d="m59.82,64.84C55.4,36.05,47.63,1.69,35.53.1c-.11-.02-.21-.05-.32-.06h-.18s0-.01,0-.01h0c-.26-.03-.33-.03-.6,0h-.03s-.05,0-.05,0c-.01,0-.03,0-.04,0h-.05c-.18.02-.38.05-.6.09-11.91,1.94-19.61,36.08-24.01,64.72C3.43,105.42,0,159.23,0,216.34c0,19.93.42,39.62,1.24,58.52l3-.13c-.82-18.86-1.24-38.5-1.24-58.38C3,113.29,13.81,37.19,26,12.02c-2.89,9.03-6.11,24.97-9.09,53.18-4.28,40.52-6.63,94.2-6.63,151.15,0,19.94.29,39.62.86,58.5l3-.09c-.57-18.84-.86-38.49-.86-58.4,0-56.85,2.35-110.42,6.62-150.83,3.1-29.36,6.45-44.95,9.19-53.21-1.69,9.07-3.52,24.97-5.22,52.96-2.45,40.49-3.81,94.14-3.81,151.08,0,20.31.17,39.98.5,58.48l3-.05c-.33-18.48-.5-38.13-.5-58.42,0-103.62,4.17-172.64,8.38-200.13-.04.68-.08,1.38-.12,2.1-.59,10.83-1.11,26.34-1.56,46.09-.93,40.55-1.43,94.51-1.43,151.94,0,19.41.06,39.08.18,58.46l3-.02c-.12-19.37-.18-39.04-.18-58.44,0-104.64,1.61-179.67,3.41-204.88,1.79,25.22,3.41,100.25,3.41,204.88,0,19.46-.06,39.12-.18,58.44l3,.02c.12-19.33.18-39,.18-58.46,0-57.35-.51-111.31-1.44-151.94-.45-19.74-.98-35.25-1.56-46.09-.04-.75-.08-1.47-.12-2.18,4.22,27.43,8.4,96.49,8.4,200.21,0,20.29-.17,39.95-.5,58.42l3,.05c.33-18.5.5-38.17.5-58.48,0-56.94-1.35-110.6-3.81-151.08-1.7-28-3.53-43.9-5.22-52.96,2.74,8.27,6.09,23.85,9.19,53.21,4.27,40.41,6.62,93.98,6.62,150.83,0,19.91-.29,39.56-.86,58.4l3,.09c.57-18.88.86-38.56.86-58.5,0-56.95-2.36-110.63-6.63-151.15-1.16-10.98-3.96-37.54-9.12-53.16,12.23,25.19,23.04,101.28,23.04,204.31,0,19.88-.42,39.53-1.24,58.38l3,.13c.83-18.9,1.24-38.59,1.24-58.52,0-57.12-3.43-110.92-9.65-151.5Z"/>
</svg>