<?xml version="1.0" encoding="UTF-8"?>
<svg id="Layer_2" data-name="Layer 2" xmlns="http://www.w3.org/2000/svg" viewBox="0 0 171.52 274.86">
  <defs>
    <style>
      .cls-1 {
        fill: #5571b4;
        stroke-width: 0px;
      }
    </style>
  </defs>
  <path class="cls-1" d="m147.69,64.84C136.78,36.05,117.6,1.69,87.73.1c-.26-.02-.53-.05-.79-.06h-.44s0-.01,0-.01h0c-.65-.03-.82-.03-1.47,0h-.08s-.13,0-.13,0c-.03,0-.06,0-.09,0h-.13c-.43.02-.93.05-1.48.09-29.39,1.94-48.43,36.08-59.27,64.72C8.47,105.42,0,159.23,0,216.34c0,19.93,1.03,39.62,3.07,58.52l7.4-.13c-2.03-18.86-3.07-38.5-3.07-58.38C7.41,113.29,34.1,37.19,64.19,12.02c-7.14,9.03-15.09,24.97-22.44,53.18-10.56,40.52-16.38,94.2-16.38,151.15,0,19.94.72,39.62,2.13,58.5l7.4-.09c-1.41-18.84-2.13-38.49-2.13-58.4,0-56.85,5.8-110.42,16.33-150.83,7.65-29.36,15.92-44.95,22.68-53.21-4.17,9.07-8.69,24.97-12.88,52.96-6.06,40.49-9.39,94.14-9.39,151.08,0,20.31.41,39.98,1.23,58.48l7.41-.05c-.81-18.48-1.23-38.13-1.23-58.42,0-103.62,10.3-172.64,20.7-200.13-.1.68-.19,1.38-.29,2.1-1.45,10.83-2.74,26.34-3.85,46.09-2.28,40.55-3.54,94.51-3.54,151.94,0,19.41.15,39.08.45,58.46l7.41-.02c-.3-19.37-.45-39.04-.45-58.44,0-104.64,3.99-179.67,8.41-204.88,4.43,25.22,8.41,100.25,8.41,204.88,0,19.46-.15,39.12-.45,58.44l7.41.02c.3-19.33.45-39,.45-58.46,0-57.35-1.26-111.31-3.56-151.94-1.12-19.74-2.41-35.25-3.86-46.09-.1-.75-.2-1.47-.3-2.18,10.41,27.43,20.73,96.49,20.73,200.21,0,20.29-.41,39.95-1.23,58.42l7.41.05c.81-18.5,1.23-38.17,1.23-58.48,0-56.94-3.34-110.6-9.39-151.08-4.19-28-8.72-43.9-12.88-52.96,6.77,8.27,15.03,23.85,22.68,53.21,10.53,40.41,16.33,93.98,16.33,150.83,0,19.91-.71,39.56-2.13,58.4l7.4.09c1.41-18.88,2.13-38.56,2.13-58.5,0-56.95-5.82-110.63-16.38-151.15-2.86-10.98-9.79-37.54-22.53-53.16,30.2,25.19,56.87,101.28,56.87,204.31,0,19.88-1.03,39.53-3.07,58.38l7.4.13c2.04-18.9,3.07-38.59,3.07-58.52,0-57.12-8.47-110.92-23.84-151.5Z"/>
</svg>