<?xml version="1.0" encoding="UTF-8"?>
<svg id="Layer_2" data-name="Layer 2" xmlns="http://www.w3.org/2000/svg" viewBox="0 0 45.03 72.12">
  <defs>
    <style>
      .cls-1 {
        fill: #191a1a;
      }

      .cls-1, .cls-2 {
        stroke-width: 0px;
      }

      .cls-2 {
        fill: #c8421a;
      }
    </style>
  </defs>
  <path class="cls-2" d="m15.86,24.82c-8.89-7.34-12.99-6.92-14.54-4.38-1.55,2.54-2.96,13.27,3.39,18.07,2.68,2.03,5.31,3.69,8.01,4.55-1.2.14-2.23.34-2.93.65-3.25,1.43-7.48,5.81-5.22,12.73,2.26,6.92,3.18,9.04,9.28,8.05s12.46-5.51,9.92-21.46c0,0-1.2-.08-2.92-.14,1.18-.45,2.39-1.09,3.63-1.98,0,0,.28-8.75-8.61-16.09Z"/>
  <path class="cls-2" d="m23.34,59.83s.42-11.29,5.08-24.14,8.05-16.52,10.16-15.81,5.22,7.76,0,15.81-6.78,9.04-6.78,9.04c0,0,3.25-2.26,7.34-2.12s6.35,2.26,5.79,4.52-4.52,12.56-12.56,14.12-9.04-1.41-9.04-1.41Z"/>
  <path class="cls-1" d="m27.43,2.22c-.56-3.62-5.83-2.48-4.9,1.01,2.8,9.3,3.4,22.25,2.2,35.02-.97-11.68-4.56-23.16-10.12-33.48-1.97-3.11-6.38.14-4.05,2.94,3.61,4.23,6.41,9.34,8.57,14.49,2.95,7.05,4.62,14.64,4.87,22.28-1.29,9.18-3.5,17.93-6.46,24.78-.52,1.19.19,2.55,1.46,2.81.02,0,.05,0,.07.01,1.13.23,2.22-.54,2.41-1.68.8-4.83,1.83-9.47,2.62-14.3.48-2.94.74-5.89.85-8.85.53-3.04,1.02-6.09,1.41-9.18,1.51-11.91,2.36-23.75,1.07-35.84Z"/>
</svg>