<?xml version="1.0" encoding="UTF-8"?>
<svg id="Layer_1" data-name="Layer 1" xmlns="http://www.w3.org/2000/svg" viewBox="0 0 537.28 694.96">
  <defs>
    <style>
      .cls-1 {
        stroke-width: 0px;
      }
    </style>
  </defs>
  <path class="cls-1" d="m521.84.58c-86.06-3.5-172.24,9.6-257.85,16.39-45.62,3.62-91.42,6.65-136.79,12.67-22.05,2.92-44.01,6.6-66.23,8.15-9.85.7-19.69.95-29.55.77-2.16-.03-9.01.72-10.82-.35-.75-.43-4.83-5.23-3.62-4.87-4.26-2.13-3-6.29-7.64,4.12-3.42,7.69-2.58,18.84-3.35,27.16-1.91,20.77-3.57,41.51-4.21,62.37C.45,171.1-.52,215.28.3,259.42c1.66,88.09,13,175.63,20,263.39,1.76,22.06,2.73,44.2,4.84,66.2.8,8.3-6.32,35.68,5.38,35.73,1.66,0,1.66-5.05,3.48-5.5,2.68-.67,4.72-.47,7.84-.75,10.62-.95,22.32-.72,33.12-1,19.7-.53,39.42.32,59.12-.3,43.68-1.33,86.45-10.4,130.02-13.27,43.81-2.88,87.74-2.72,131.63-3.42,6.27,0,52.86,3.63,53.85-3.02,1.22-8.29-37.85-3.63-44.98-3.67-44.65-.15-89.3,1.1-133.89,3.18-45.18,2.1-89.4,12.37-134.7,13.72-22.89.7-46.32-.9-69.11.9-6.99.55-12.5,2.3-19.43,1.07-8.9-1.58-3.67-6.44-13.89-.75-9.63-45.83-7.17-96.59-11.09-143.32-3.74-44.61-9.01-89.11-12.51-133.75-6.55-83.42-5.08-167.66,1.21-251.07.62-8.25-1.56-27.86,3.38-34.53,4.07-5.47,9.47-4.12,16-4.28,6.28-.17,27.39-3.28,37.53-1.42,6.85-1.3,15.98-2.17,28.18-1.65.57-.72,1.44-1.47,2.73-2.33,5.6-3.75,18.11-2.82,24.78-3.65,20.42-2.55,40.93-4.3,61.44-6.07,21.61-1.87,43.22-3.67,64.84-5.37,11.19-.87,19.65-4.52,22.82-.08,3.25-.47,8.23-1.18,14.93-2.1,1.19-.55,2.51-1,3.95-1.3,22.42-4.7,46.89-5.42,70.53-6.75,7.09-.4,14.09-.85,20.93-1.48,4.91-.45,9.82-.87,14.73-1.27.35-.03.72-.05,1.07-.08,25.2-2.02,50.36-3.35,75.64-4.68,4.56,0,8.8.25,12.43,1.02,5.78.1,10.76.32,14.69.72.22-.95.82-1.83,2.04-2.62,4.84-3.15,16.23,2.35,21.01,2.73,22.47,1.82,10.17-7.47-3-8Zm-.52,75.46c-.6-10.95.11-21.84.09-32.79,0-5.21-3.65-19.3-1.8-23.67,2.84-6.71,4.54-3.28,6.97,2.75,3.58,8.87,1.35,22.26,1.09,31.66-1.25,46.06-4.13,92.05-5.81,138.1-3.42,93.22-2.18,186.67-4.74,279.95-1.23,44.76.61,90.15-1.63,134.76-.57,11.34.61,12.77-9.71,13.02-9.79.24-21.14-3.35-30.9-4.94-2.59-.42-21.02-1.4-17.23-6.37,2.69-3.53,23.43,2.23,27.11,2.81,5.04.79,17.46,5.75,22.19,1.91,4.94-4.02,1.74-19.2,1.75-24.41.06-23.36.21-46.73.6-70.09.74-44.24,1.98-88.48,2.86-132.72,2.04-103.36,1.6-206.8,9.16-309.97ZM50.07,313.01c.8.08,1.59.16,2.6.26,8.39,41.73,15.51,83.6,17.64,126.91,4.58-2.15,6.96-5.14,7.87-7.37.59-11.14.69-20.72,1.7-30.21,1.83-17.21,4.82-34.28,9.64-50.95,2.5-8.67,4.61-17.55,9.54-25.4.84-1.33.75-3.23,1.14-5.09-14.16,3.14-29.36-1.8-44.28-13.93-.99,1.19-1.97,2.38-3.67,4.44-.26-3.51-.45-6.01-.63-8.39-10.19-9.93-18.29-21.16-25.07-33.42-5.32-9.61-10.65-19.13-12.93-30.03-2.77-13.22-3.22-26.19-.36-39.62,2.31-10.88,6.65-20.36,14.15-28.2,5.32-5.55,11.85-10.01,18.03-14.73,3.62-2.76,7.6-5.05,11.88-7.86-.64-2.32-1.07-4.64-1.91-6.82-3.89-10.11-5.06-20.63-5.4-31.35-.54-17.14,4.48-32.73,14.29-46.58,6.73-9.51,15.59-17.37,27.26-20.63,5.05-1.41,10.74-.66,14.94-.84,12.74,5.39,17,15.92,19.87,26.37,5.05,18.46,5.24,37.44,2.84,56.44-1.67,13.22-3.06,26.48-4.19,39.75-.31,3.62.57,7.39,1.26,11.02.96,5-.45,9.01-4.63,11.91-.91.63-2.42.41-3.7.59-.42-1.17-.96-1.91-.91-2.63,1.1-18.01,3.4-35.86,6.01-53.72,1.96-13.41,2.3-27.17,1.97-40.74-.23-9.46-2.32-18.92-6.16-27.91-3.75-8.77-8.95-15.25-20.59-15.58-3.47,1.02-8.08,2.38-12.94,3.8-30.35,24.95-35.09,56.11-21.43,92.13,11.04-.86,19.38-8.79,30.97-9.21-3.79,4.94-8.98,5.53-13.31,7.61-4.34,2.09-8.51,4.54-13.49,7.24.68,2.17,1.08,4.45,2.07,6.45,2.59,5.24,5.36,10.4,8.21,15.51,4.43,7.94,9,15.81,13.5,23.71,10.45,18.33,21.27,36.62,26.68,57.09,3.09,11.69,6.03,23.54,4.04,36.21-1.2,7.62-1.29,15.28-5,21.17,1.83,6.47,4.59,12.02,4.72,17.63.24,10.55.82,21.23-1.93,31.69-1.75,6.67-3.34,13.42-4.36,20.23-.97,6.48-3.7,12.23-6.27,18.09-5.4,12.3-12.16,23.76-21.29,33.8-2.66,2.93-5.41,6.01-3.61,11.24,11.08-1.64,21.26-5.96,31.94-8.2,10.81-2.28,21.58-4.74,32.71-7.2,2.73-4.48,2.81-5.08,1.66-14.3-2.3-.83-4.78-1.73-7.28-2.63-2.45.49-4.8.96-7.68,1.53-.34-1.36-.61-2.48-1.03-4.18,5.18-.59,9.87-1.13,14.93-1.71,2.66-3.06,2.28-7.21,2.56-11.1.4-5.6.43-11.22.51-16.84.25-17.64,3.1-35.01,5.43-52.45,2.01-15.07,5.88-29.78,8.48-44.71.88-5.04-.61-10.56-1.48-15.79-2.47-14.98-5.31-29.9-7.76-44.89-2.94-17.99-3.81-36.17-2.88-54.3.82-15.93,1.19-31.98,5.38-47.61.94-3.52.64-7.4.64-11.11,0-5.19.57-10.12,4.86-14.41,2.43-1.23,5.32-2.7,7.75-3.94,2.66-3.19,5.02-6.02,8.26-9.91.73,2.69,1.51,4.07,1.37,5.35-.25,2.36-1.04,4.67-1.77,7.72,9.49,8.99,16.54,20.35,23.99,31.44,7.42,11.05,14.32,22.37,20.68,34.38.57-3.32,1.44-6.61,1.67-9.95.89-13.05,1.43-26.12,2.39-39.17.79-10.62,1.67-21.25,3.17-31.79.62-4.37,2.85-8.55,4.59-12.72.39-.94,1.81-1.47,2.69-2.13,2.72,1.88,2.48,4.12,1.6,6-3.64,7.73-3.66,16.02-4.18,24.23-1.06,16.75-2.11,33.5-3.04,50.26-.25,4.47-.04,8.97.84,13.71,1.28-3.05,2.55-6.1,3.84-9.14,5.64-13.27,11.03-26.66,17.03-39.77,4.38-9.57,10.75-17.91,19.32-25.27,3.28-1.11,7.11-2.4,10.96-3.71,1.96,1.13,3.8,2.2,5.91,3.42,4.37,6.5,4.1,14,3.05,21.43-.92,6.57-2.6,13.05-3.83,19.58-.35,1.82-.32,3.71-.49,5.85.95.78,1.94,1.59,3.49,2.87,1.23-1.67,2.89-2.95,3.16-4.46.87-4.99,1.12-10.07,1.82-15.09,1.51-10.79.87-21.86,4.45-32.41.66-1.93.12-4.24.28-6.36.12-1.46.5-2.9.95-5.39,4.78,5.19,6.9,9.69,3.88,15.65-1.05,2.07-1.42,4.58-1.6,6.93-.63,7.93-1,15.88-1.54,23.82-.27,3.95-.68,7.89-1.03,11.96,5.11,3.68,11.34.24,16.59,3.61.95-2.35,2.21-4.03,2.23-5.72.17-12.5.09-25-1.46-37.96-2.56,3.79-5.11,7.58-8.68,12.86-.08-6.15,1.63-10.02,3.41-13.92,1.82-3.99,1.72-9.05,7.13-11.63,4.8,5.57,5.62,12.38,6.43,19.15,1.17,9.82.26,19.66.07,29.5-.08,4.21.3,8.43.5,13.24-.55,2.07-1.73,4.83-1.98,7.68-1.33,14.88-2.44,29.78-3.57,44.68-.18,2.32-.02,4.67-.02,8.06,6.01-1.61,11.32-3.03,17.38-4.65,1.2-4.02,2.61-8.28,3.74-12.61,3.17-12.12,6.2-24.27,9.32-36.39,3.59-13.93,7.12-27.89,10.9-41.77,2.66-9.75,5.94-19.34,8.47-29.12,1.73-6.67,2.69-13.54,3.89-20.34,1.21-6.83,2.26-13.69,3.48-20.52.88-4.95,1.29-5.48,5.19-8.14,3.91,1.39,2.91,4.57,2.69,7.4-.9,11.4-2.66,22.81-2.59,34.2.11,16.23,1.55,32.45,2.41,48.68.07,1.33.09,2.67.14,4.01.73,21.07,1.45,42.15,2.2,63.22.32,8.93,3.48,12.64,13.83,15.61,1.92-13.2,3.18-26.31,4-39.53.81-12.97,2.45-25.89,3.81-39.65,1.95-.44,4.16-.94,6.69-1.51,1,2.46,1.86,4.37,2.55,6.34,7.71,21.86,15.56,43.67,23.01,65.61,3.59,10.59,6.61,21.37,9.51,32.17,5.53,20.62,11.48,41.11,19.93,60.8.58,1.35,2.03,2.33,3.5,3.96,3.34-7.66,4.75-14.97,4.67-22.7-.12-12.3-.01-24.61.19-36.91.11-6.4.89-12.78.91-19.18.04-21.09-.77-42.1-4.21-63-2.34-14.2-3.12-28.64-5.62-42.8-1.93-10.96-1.44-21.73-.97-32.65,1.18-.69,2.09-1.22,2.93-1.71.57.31,1.28.46,1.37.79.55,2.03,1.47,4.12,1.34,6.14-.94,15.27,1.91,30.18,4.07,45.16,1.75,12.13,2.76,24.37,4.81,36.44,4,23.62,3.1,47.38,2.76,71.13-.09,6.12-.7,12.23-1.2,18.34-.4,4.92.1,9.59,3.29,13.92-1.4,13.15-2.82,26.38-4.09,38.27-2.11,9.24-4.34,17.17-5.68,25.25-2.53,15.26-6.74,30.07-10.88,44.95-2.26,8.13-3.2,16.75-3.67,25.2-.65,11.74-.1,23.53-.43,35.29-.43,15.21-1.06,30.41-1.98,45.59-.22,3.61-1.73,7.21-3.09,10.64-.48,1.21-2.27,1.91-4.14,3.36-3.53-4.14-6.76-7.93-10.53-12.36-3.8,11.43-4.36,23.08-7.13,34.24-2.81,11.37-5.3,22.83-7.48,34.33-2.18,11.49-3.8,23.08-5.66,34.62.49.34.98.67,1.47,1.01-1.4,1.48-2.79,2.95-4.43,4.68-1.6-1.79-2.48-2.31-2.53-2.9-.18-2.11-.3-4.27-.04-6.37,1.6-12.7,3.19-25.4,5.03-38.07.69-4.72,2.07-9.34,3.12-14.01,2.9-12.97,5.96-25.91,8.62-38.93,1.33-6.51,2.38-13.14,2.69-19.75.17-3.57-1.3-7.27-2.35-10.81-4.53-15.35-9.33-30.62-13.73-46-5.57-19.45-10.49-39.1-16.41-58.44-2.94-9.62-7.5-18.75-12.17-27.9-.05,9.28-1.7,18.7,3.46,27.17,4.96,8.14,4.63,16.98,3.36,25.68-1.42,9.71-3.31,19.4-8.45,28.16-3.76,6.41-4.81,13.07-2.9,20.7,3.42,13.67,5.18,27.75,8.63,41.42,2.2,8.71,6.18,16.98,9.41,25.44,1.76,4.62,5.07,8.78,4.56,14.68-1.73.12-3.23.22-4.85.32-11.4-22.89-22.99-45.41-42.46-63.19-4.35,3.14-8.1,6.09-12.09,8.66-3.79,2.44-7.85,4.48-11.91,6.77,1.06,6.8,2.12,13.06,2.98,19.35.72,5.28,1.43,10.57,1.78,15.89.75,11.44.55,22.98,2.07,34.3,1.43,10.66,1.22,21.28,1.59,31.93.19,5.57,1.22,11.13,1.28,16.7.04,3.11-1.03,6.26-1.77,9.35-.68,2.84-2.45,4.68-6.11,5.08-5.46-3.08-8.59-8.23-9.9-14.36-3.4-15.91-6.38-31.87-6.78-48.22-.14-5.84-1.17-11.65-1.75-17.48-.51-5.04-1.34-10.09-1.34-15.14,0-8.58-.62-17.02-2.48-25.43-.74-3.34-.42-6.91-.61-11.15-4.45-7.17-9.45-14.15-19.26-17.09-9.28-2.77-18.02-7.25-27.73-8.86-3.2-.53-6.37-1.27-10.16-2.03,0,2.98-.38,5.87.07,8.64,1.7,10.52,3.87,20.96,5.49,31.49,3.03,19.77,4.17,39.69,3.8,59.67-.1,5.56-1.18,11.1-1.92,17.6-1.35.73-3.34,1.81-5.75,3.12-6.72-6.64-12.59-13.21-16.33-21.28-6.42-13.87-11.26-28.31-14.75-43.15-2.31-9.84-4.88-19.74-5.76-29.74-1-11.38-.53-22.93-.14-34.38.21-6.09,1.64-12.13,2.41-18.21.12-.96-.31-1.99-.41-2.54-10.73,4.09-21.23,8.1-32.69,12.47.88,5.42,1.61,11.44,2.88,17.34,3.46,16.14,6.64,32.37,10.9,48.31,4.12,15.42,6.28,31.28,11.66,46.43,2.75,7.74,4.15,15.96,5.99,24,.4,1.73.06,3.63.06,6.08-4.42-1.72-5.54-5-6.5-8.18-2.31-7.65-4.58-15.33-6.57-23.07-4.45-17.28-8.71-34.61-13.06-51.92-1.4-5.59-2.84-11.16-5.07-16.75-1.82,7.77-4.36,15.03-7.66,22.05-2.6,5.53-4.2,11.68-7.62,16.64-4.99,7.23-10,14.57-16.77,20.54-3.8,3.35-6.86,7.5-10.38,11.44,1.22,9.87,2.15,19.56,5.29,30.86,4.33-7.62,7.8-13.71,11.5-20.21,1.96-.59,3.17.79,2.94,2.97-.27,2.61-.81,5.32-1.9,7.69-3.21,7.01-6.75,13.88-10.27,21.01-1.45.15-2.75.29-4.94.52-4.72-11.78-6.24-24.33-8.71-38.03-29.42,27.53-61.17,48.88-97.92,61.89-4.19-2.12-3.84-5.29-3.23-8.57,1.42-7.58,3.44-15.11,4.02-22.75.45-6.01-.62-12.2-1.52-18.23-.79-5.25-2.01-10.48-3.54-15.58-3.13-10.44-3.1-21.08-2.72-31.77.27-7.49,3.56-13.96,7.59-20.02,2.06-3.09,4.87-5.87,9.49-5.23-.34-3.19,2.65-6.11-.46-9.33-7.63,4.4-15.31,8.8-22.96,13.24-3.33,1.93-6.73,3.37-11.17,1.94v-4.95c6.08-3.36,12.15-6.29,17.75-9.92,5.62-3.63,10.77-7.96,16.41-12.18-.73-8.38-1.32-16.32-2.14-24.23-.83-7.94-2.16-15.85-2.78-23.8-1.06-13.56-3.06-26.94-5.88-40.26-1.87-8.84-2.63-17.91-3.97-26.86-.82-5.52-1.85-11.02-2.64-16.54-.11-.8.6-1.72.94-2.58l-.23-.22c.31.4.63.8.94,1.21.33-.4.65-.79.97-1.19l-.22.21Zm294.11,158.7c.33.25.65.5.98.75-.39-.18-.79-.37-1.18-.55v-7.2c-1,2.44-3.01,5.13.2,7Zm75.56-334.26c-.75,4.01-1.61,7.06-1.84,10.15-.79,10.62-1.33,21.26-2.04,31.88-.25,3.7-.67,7.4-1.16,11.09-1.78,13.46-3.48,26.93-5.49,40.36-1.05,7.06-2.63,14.05-4.04,21.05-1.89,9.36-4.56,18.62-5.6,28.07-1.05,9.65-.53,19.47-.68,28.55,5.82,7.63,10.65,14.91,13.95,23.19,7.53,18.88,12.14,38.61,17.71,58.05,5.06,17.65,9.74,35.41,14.64,53.12.31,1.1,1.01,2.1,2.07,4.24,1.27-2.83,2.25-4.4,2.67-6.09,1.55-6.2,2.95-12.43,4.34-18.67,4.05-18.17,8.08-36.34,12.08-54.52.74-3.38,1.36-6.79,1.93-10.2,2.53-15.23,5.13-30.44,7.48-45.69,1.09-7.1,1.98-14.2-2.04-21.02-2.29-3.88-3.56-8.33-5.42-12.46-6.92-15.39-10.59-31.83-15.99-47.72-8.24-24.22-15.49-48.76-23.38-73.09-2.18-6.71-4.17-13.62-9.18-20.28Zm-192.54,151.08c2.03-9.86,1.1-19.41.76-28.94-.17-4.77-1.35-9.53-1.22-14.28.34-11.98-2.7-23.78-.96-35.91,1.19-8.32.46-16.91.42-25.38-.02-3.7.27-7.63-.86-11.05-1.84-5.55-4.3-11.01-7.25-16.08-10.35-17.82-20.7-35.66-33.53-51.93-2.08-2.64-4.55-4.99-7.37-8.05-5.84,7.67-8.74,15.44-8.79,23.71-.04,6.55,1.07,13.27,4.93,19.15,1.14,1.73,1.37,4.03,2.16,6.01,1.57,3.95,3.17,7.88,4.9,11.76.82,1.83,1.96,3.53,3.09,5.52-3.73,1.24-4.98-1.06-6.07-3.1-3.28-6.13-6.38-12.35-9.58-18.52-.92-1.77-1.96-3.48-3.25-5.76-.81,1.39-1.52,2.03-1.49,2.64.84,15.91-2.53,31.68-.88,47.71,1.39,13.47.23,27.11,3.51,40.56,2.89,11.85,4.27,24.05,6.53,36.05.98,5.19,3.09,10.22,3.62,15.43,1.25,12.11,5.63,23.21,10.24,34.28.8,1.92,2.13,3.69,3.46,5.33,5.64,6.94,13.06,7.91,21.19,6.02,8.84-8.47,9.28-11.45,5.28-21.82-2.9-7.54-4.88-15.41-3.64-24.41,3.46,2.6,3.24,5.76,3.8,8.5.97,4.69,1.5,9.46,2.53,14.13.27,1.23,1.7,2.22,2.86,3.65,3-3.68,1.21-7.31,1.93-10.9,1.18-1.39,2.55-3.02,3.67-4.34ZM59.83,152.94c-4.04,3.07-7.08,5.64-10.38,7.84-16.09,10.74-27.39,24.71-30.93,43.94-2.16,11.72-2.17,23.47,1.7,34.79,2.75,8.04,7.17,15.52,9.93,23.56,3.67,10.69,11.17,18.87,17.91,27.41,6.45,8.16,14.35,15.24,23.92,20.08,9.42,4.76,19.17,7.36,29.76,4.05,4.34-1.36,7.88-3.77,9.98-7.71,3.98-7.44,5.79-15.36,4.8-23.82-.43-3.71-.68-7.44-1.08-11.15-1.15-10.64-3.62-20.94-7.82-30.85-7.53-17.78-17.36-34.36-27.02-51.04-2.67-4.62-5.17-9.33-7.78-13.99-4.29-7.67-8.61-15.32-12.99-23.11Zm290.01,42.51c-1.03,2.68-3.02,5.59-3.16,8.59-.43,9.44-5.08,17.72-6.84,26.78-1.91,9.83-4.92,19.45-7.19,29.22-1.62,6.98-2.92,14.04-4.14,21.11-.45,2.6-1.04,5.56-.23,7.91,1.71,4.9.93,9.45-.53,13.9,1.85,7.87,1.63,15.49.37,23.22-1.46,8.91-2.67,17.79-.83,26.97,1.93,9.65,2.59,19.53,3.96,29.29.26,1.88,1.28,3.66,2.52,7.01,1.71-3.93,2.78-6.32,3.79-8.73,3.53-8.4,7.4-16.64,12.93-23.95,7.31-9.67,16.56-16.75,28.64-19.96,2.18-.58,4.09-2.1,5.18-2.68,1.26-8.07,1.22-15.3,3.67-21.58,3.13-8.05,3.82-16.03,3.38-24.3-.82-15.39-2.05-30.77-2.71-46.17-.56-13.08-.59-26.19-.79-39.28-.05-3.52-.16-6.96-3.23-9.86-11.41-1.48-22.79.39-34.78,2.52ZM66.14,469.32c-12.79,10.8-13.79,24.04-13.6,37.44.12,7.97,1.69,15.85,4.19,23.51,1.41,4.31,2.83,8.65,3.74,13.08,1.55,7.52,3.17,14.94,1.48,22.87-.88,4.1-3.69,8.55-.7,13.45,2.05-.29,4.39-.11,6.23-.96,7.86-3.64,15.84-7.15,23.28-11.52,20.33-11.91,38.92-26.13,56.48-41.74,4.05-3.6,5.85-7.13,5.65-12.33-.59-16.01-.97-32.02-1.32-48.03-.18-8.28-.15-16.57-.23-24.86-.03-2.62.41-5.46-2.91-6.77-2.83.88-5.61,2.26-8.5,2.55-17.59,1.76-33.74,9.1-50.92,12.44-1.59.31-3.18,1.85-4.22,3.22-.6.78-.11,2.37-.11,4.06,9.87.11,18.82-4.92,29.29-2.3-9.85,4.53-21.22,1.16-30.07,8.25.62,7.36,1.52,14.76,1.79,22.18.33,9.08.13,18.17.17,27.26.07,14.44.19,28.87.23,43.31.01,4.56-.27,9.06-4.79,12.06-4.27-1.54-4.41-5.08-4.66-8.55-.9-12.44-1.58-24.89-2.74-37.3-1.19-12.73-2.69-25.43-4.36-38.11-.54-4.11-2.06-8.1-3.41-13.19Zm181.99-111.7c.64-.04,1.28-.07,1.92-.11,3.93-10,11.44-17.28,18.78-24.77,8.53-8.7,17.67-16.47,28.75-21.96,4.26-2.11,8.11-5.01,12.1-7.52.71-9.92,1.39-19.2,2.05-28.48.1-1.33.08-2.67.24-4,1-8.44,2.13-16.87,3.03-25.33.96-9,1.81-18.01,2.46-27.03.14-1.95-.8-3.98-1.2-5.81h-5.84c-1.29-3.72,1.33-5.24,3.25-6.99,2.91-2.65,4.53-5.65,4.79-9.7.62-9.56,1.73-19.08,2.53-28.63.73-8.76,1.37-17.54,1.93-26.31.17-2.6.64-5.44-2.86-7.71-4.62.56-9.88,1.2-15.39,1.87-1.07,2.35-2.64,4.43-2.97,6.69-3.86,26.54-11.17,52.6-11.37,79.71.58,1.13.98,2.51,1.85,3.47,4.54,5,5.29,11,4.82,17.27-.77,10.17-3.28,19.94-7.8,29.12-2.34,4.76-2.84,9.27-1.67,14.62,1.11,5.05.33,10.55.01,15.82-.07,1.2-1.68,2.31-2.68,3.58-4.89-2.54-4.44-7.89-7.73-11.81-5.98,6.11-11.44,12.06-17.31,17.58-6.12,5.76-14.67,7.12-22.73,10.19,3.84,12.62,7.44,24.43,11.03,36.24Zm-9.74-43.71c3.28,0,5.47.65,6.89-.1,13.96-7.33,24.24-18.57,33.94-31.54.39-9.25,1.02-19.07,1.16-28.9.15-10.03,3.15-19.98,1.23-30.35-12.15-6.1-25.32-6.8-38.87-9.3,0,2.57-.12,4.39.02,6.2,1.13,15.28-1.28,30.17-4.57,45.04-1.31,5.92-1.51,12.1-1.9,18.18-.25,3.99-.11,8.02.19,12.01.46,6.04,1.21,12.05,1.9,18.76Zm-12.5,1.83c-1.74.89-2.39,1.01-2.66,1.39-1.7,2.4-3.28,4.89-4.96,7.31-4.14,5.97-11.34,8.69-18.46,6.6-4.54-1.33-8.93-3.19-14.16-5.09,1.45,24.37,10.06,47.01,12.97,70.61.25,2,1.57,3.86,2.3,5.57,13.51-.3,23.64-8.01,35.37-13.39,2.47-5.67,5.12-11.77,8.23-18.91-1.71-5.58-3.66-11.9-5.59-18.24-.31-1.02-.5-2.08-.81-3.1-2.64-8.66-5.15-17.36-8.02-25.94-.79-2.37-2.67-4.38-4.22-6.81Zm37.33,94.32c10.78-11.42,20.71-21.6,30.23-32.14,9.5-10.53,16.49-22.82,24.02-35.58-2.34-6.13,1.9-14.79-5.3-21.1-1.44,3.49-2.64,6.91-6.32,9.55-1.93-6.47,2.45-11.83.93-17.79-5.45.04-9.24,3.97-13.23,6.51-17.63,11.22-30.21,27.11-40.61,45.12v10.11c4.79-4,8.67-6.91,11.08-11.64,2.19-4.29,2.09-9.77,6.56-13.57,1.99,3.03,1.65,5.59.91,8.14-.78,2.69-1.7,5.35-2.88,9.02-3.21,3.86-7.13,8.59-11.1,13.37-.28,2.05-.57,4.14-.62,4.51,2.25,9.06,4.11,16.52,6.34,25.49Zm118.83-69.56c-6.76,3.14-13.91,5.65-19.35,11.12-12.26,12.33-19.55,27.29-23.51,43.84-1.14,4.77-3.13,9.75-.93,15.25,5.41,2.35,11.34,4.32,16.6,7.39,5.24,3.06,9.8,7.22,14.83,11.02,8.32-5.53,12.64-13.45,16.85-21.45,2.57-4.88,1.25-9.84.55-14.86-.48-3.42-.38-6.93-.51-10.4-.44-11.72-.89-23.44-1.26-35.16-.09-2.76-.25-5.37-3.27-6.77Zm-114.57,197.82c2.95-3.45,3.01-6.55,2.88-9.81-.5-12.73-.66-25.49-1.39-38.21-.46-7.95-1.49-15.9-2.69-23.79-1.64-10.8-3.61-21.55-5.63-32.28-.46-2.46-1.72-4.78-2.39-6.58-3.51-1.34-7.27.32-8.74-4.44,1.94-2.18,4.18-4.71,6.3-7.08-.06-11.91-3.77-25.03-8.28-29.26-4.73,2.34-5.6,6.85-6.24,11.31-.94,6.57-1.35,13.22-2.38,19.77-2.55,16.27-1.84,32.51,1.38,48.49,3.15,15.62,6.84,31.18,12.68,46.13,3.51,8.98,8.25,17.22,14.49,25.74Zm20.15-453.16c-1.55.13-3.55-.3-4.61.49-4.51,3.38-9.7,6.46-12.87,10.88-5.4,7.54-10.34,15.64-13.92,24.14-6.52,15.45-12.13,31.29-17.64,47.13-1.72,4.94-2.71,10.44-2.53,15.63.2,5.67,2.11,11.28,3.4,16.9.14.6,1.09,1.02,2.16,1.96,14.96-17.38,30.2-34.25,36.88-57.08-.67-.7-1.54-1.59-2.57-2.66-3.92,2.62-7.58,5.05-11.9,7.94.26-3.1.46-5.4.67-7.97,4.12-2.01,7.8-4.6,11.89-5.62,5.79-1.43,7.72-5.2,8.66-10.18,1.53-8.09,3.49-16.14,4.42-24.3.64-5.61,2.23-11.68-2.05-17.27Zm-128.6,346.73c-.56.91-1.84,2.02-1.83,3.11.38,24.9.88,49.79,1.46,74.69.02.83,1.14,1.63,2.02,2.82,6.85-5,11.84-11.33,16.52-17.66,8.79-11.87,15.37-24.93,19.8-39.06,2.42-7.73,1.16-14.54-2.53-21.43-11.47-5.74-23.29-3.64-35.44-2.47Zm105.29-13.88c3.03,1.27,4.6,2.28,6.3,2.59,12.3,2.22,24.11,5.72,35.06,11.84,1.39.78,3.48.35,5.08.47,2.83-9.85,4.99-19.48,17.8-21.53-1.46-10.06-2.37-19.86-4.43-29.41-2.01-9.33-1.24-19.24-5.47-29.4-1.54,2.5-2.33,3.84-3.18,5.14-3.91,6.05-7.21,12.6-11.88,18.01-10.11,11.72-20.92,22.86-31.47,34.22-2.16,2.33-4.42,4.57-7.81,8.06Zm-72.26-13.37c-.11-2.29.02-3.9-.29-5.42-3.39-16.64-6.84-33.27-10.27-49.91-2.31-11.19-4.93-22.33-6.77-33.59-.94-5.76-1.14-11.53-5.32-16.81-.63,1.3-1.33,2.17-1.45,3.11-1.25,9.2-2.28,18.43-3.63,27.62-.65,4.46-2.34,8.81-2.7,13.27-1.01,12.47-1.55,24.98-2.32,37.47-.23,3.71-.78,7.41-.88,11.13-.13,4.67-1.49,9.49.94,14,10.85,2.16,21.44,3.25,32.7-.87ZM381.51,77.68c-.45.03-.91.05-1.36.08-2.69,9.58-5.51,19.13-8.03,28.76-3.64,13.9-6.94,27.89-10.62,41.78-3.33,12.57-7.01,25.05-10.41,37.6-.21.77.63,1.82.97,2.72,6.01-.8,11.58-1.89,17.2-2.2,5.52-.3,11.08.2,17.33.37,0-3.54.12-6.43-.02-9.32-.44-8.78-1.09-17.55-1.46-26.33-.73-17.34-1.26-34.7-2.03-52.04-.32-7.15-1.04-14.28-1.57-21.42ZM84.3,425.93c2.47-2.42,3.89-3.37,4.69-4.68,5.55-9.13,11.2-18.22,16.33-27.58,2.28-4.16,4.02-8.8,4.99-13.43,2-9.61,3.99-19.31,4.75-29.07.79-10.22,3.91-20.59-.07-30.85h-4.7c-9.08,11.71-13.34,25.45-17.24,39.17-2.53,8.9-3.6,18.22-5.07,27.39-1.97,12.32-3.31,24.71-3.66,39.05Zm211.76-290.3c-3.13,1.2-5.05,1.33-5.75,2.31-2.16,3.02-4.1,6.24-5.67,9.6-1.69,3.62-2.61,7.59-4.32,11.2-6.42,13.6-14.47,26.13-25.07,37.04-2.91,2.99-5.22,6.55-7.82,9.87,5.13,5.8,12,4.32,17.74,6.05,5.84,1.76,11.81,3.13,18.35,4.83.94-27.03,7.28-52.91,12.53-80.9Zm37.29,320.59c-.65.03-1.31.06-1.96.09,0,3.14-.29,6.31.05,9.41,1.95,18.25,4.73,36.45,5.87,54.75.8,12.78,1.58,25.5,3.73,38.11,1.37,8.05,2.62,16.19,7.32,23.82.92-1.23,2.01-2.02,2.08-2.89.62-7.41,1.47-14.85,1.42-22.27-.06-9.04-.84-18.07-1.48-27.1-.2-2.85-.93-5.66-1.3-7.85-2.48-1.79-4.21-3.03-6.25-4.51-3.15-20.46-6.31-41.01-9.48-61.57Zm8.18-258.24c-6.15,2.1-10.16,3.48-14.18,4.85-1.05,2.19-2.51,4.03-2.76,6.01-.79,6.32-1.1,12.69-1.65,19.04-1.03,11.9-1.49,23.89-3.36,35.66-1.33,8.34-1.2,16.28.73,25.13,3.74-15.48,7.37-30.12,10.81-44.81,3.42-14.61,6.65-29.25,10.41-45.87Zm-183.3,227.17c6.13,0,11.73-.05,17.33.01,5.89.07,11.9-.48,16.9,3.85.88.76,2.85.32,4.96.49-1.04-5.78-2-11.1-3.04-16.86-2.61,0-4.59-.46-6.24.08-6.62,2.16-13.38,1.25-20.1,1.25-3.12,0-6.24-.36-9.82-.59v11.78Zm236.15-230.81c.4,20.66.74,39.1,1.18,57.54.02.93.84,1.84,1.75,3.7,5.28-18.52,7.15-36.52,9.11-55.02-3.72-1.92-6.92-3.58-12.03-6.22Zm68.41,283.04c-.56-20.37,3.85-40.49,1.73-62.55-1.36,3.54-2.17,5.22-2.65,7-3.17,11.53-6.3,23.07-9.34,34.63-.39,1.5-.79,3.42-.18,4.67,2.76,5.7,4.89,11.81,10.44,16.25Zm-122.66-59.96c1.77,10.08-.25,20.78,6.86,30.46,6.01-4.44,11.42-8.43,17.48-12.91-5.63-9.27-15.26-12.42-24.35-17.56Zm57.59,43.65c0-.91.2-2.23-.03-3.47-2.13-11.51-4.26-23.02-6.57-34.5-.31-1.56-1.57-2.93-2.91-5.29-3.8,7.53-11.5,11.04-12.81,17.52,8.02,9.25,15.17,17.5,22.33,25.75Zm-5.06-118.95c-3.69,6.58-2.86,41.75-.18,53.16,5.29-9.43,8.1-18.56,8.52-28.72-4.69-1.1-6.49-3.96-6.38-8.18.07-2.4.22-4.84-.09-7.21-.4-3.05-1.23-6.04-1.87-9.06Zm-315.44,121.54c-.62.02-1.24.04-1.87.06-.68,1.34-1.86,2.65-1.95,4.03-.18,2.89.04,5.85.41,8.73.79,6.03,1.8,12.03,2.7,18.05.72,4.86,1.41,9.73,2.11,14.59.71-13.65.77-27.21.61-40.76-.02-1.57-1.32-3.13-2.02-4.7Zm241.28-39.74c-.52,3.65-2.9,7.38.69,11.18,1.47-.11,2.98-.22,4.36-.33,1.98-4.21,3.89-7.93,5.48-11.78,1.1-2.64.77-5.13-2.74-7.05-2.5,2.56-5.08,5.2-7.79,7.98Zm-82.77-208.27c-3.33.79-3.54,3.12-3.51,5.17.1,7.71.39,15.42.7,23.12.07,1.87.5,3.72.89,6.5,3.54-7.29,4.23-22.77,1.93-34.79Zm50.73,41.39c6.38-5.34,5.65-12.36,5.43-19.22-.04-1.22-1.05-2.41-1.61-3.62-.54.07-1.08.15-1.62.22-.73,7.54-1.47,15.08-2.2,22.61Zm-214.17,198.04c.65,2.33,1.09,3.92,1.6,5.75,4.39-3.34,5.27-5.88,2.87-7.66-1.14.49-2.35,1-4.47,1.91Zm320.14-125.66c-2.44,2.13-3.55,4.26.31,6.29-.13-2.62-.22-4.46-.31-6.29Zm-47,153.27c-.37-.08-.74-.16-1.12-.23.15,1.51.3,3.02.45,4.53.22-.01.45-.02.67-.04v-4.26Zm-4.15-21.33c.24-.02.49-.03.73-.05-.06-.93-.13-1.86-.19-2.79-.24.02-.49.03-.73.05.06.93.12,1.86.18,2.79Zm-17.85-17.38c.26-.21.53-.43.79-.64-.5-.61-1-1.22-1.51-1.84-.29.23-.57.47-.86.7.53.59,1.05,1.18,1.58,1.78Zm23.34,46.32l-.34-.29-.07.48.42-.19Zm-208.11-192.71c-1.04.83-2.58,2.08-4.07,3.28-2.76-2.06-3.45-4.34-3.11-7.19,2.05-17.51,2.83-35.09,2.82-52.71,0-18.18-.81-36.43.49-54.53,1.27-17.53.52-35.21,3.75-52.63,1.38-7.45,1.03-15.2,1.95-22.75,1.99-16.4,4.16-32.78,6.57-49.13.62-4.21,1.27-8.98,6.06-10.63,4.11.78,3.34,4.03,4.06,6.09-1.8,3-3.52,5.86-4.53,7.53-1.43,13.28-2.7,25.25-4,37.22-1.11,10.16-1.89,20.37-3.49,30.45-1.35,8.5-.25,17.06-1.76,25.57-1.45,8.23-1.97,16.67-2.35,25.04-.46,10.26-.39,20.55-.45,30.82-.11,18.97.02,37.94-.27,56.91-.13,8.38-1.04,16.76-1.69,26.67Zm-76.1,19.47c.15-.86.31-1.72.46-2.58.24,0,.48.01.72.02.08.85.16,1.71.24,2.56l.22-.2c-.62,0-1.24-.01-1.85-.02l.22.22Zm-9.48,371.15c0-.83-.26-1.51-.79-2.05-.52-.54-1.79-1.16-3.81-1.86-2.02-.7-3.76-1.6-5.23-2.71-1.54-1.15-2.31-2.79-2.31-4.92s.79-3.7,2.37-4.96c1.58-1.25,3.61-1.88,6.08-1.88s4.57.71,6.1,2.13c1.53,1.42,2.3,3.22,2.3,5.42h-4.72c0-1.03-.31-1.87-.92-2.54-.61-.66-1.56-.99-2.84-.99s-2.16.27-2.76.82c-.6.55-.9,1.22-.9,2.02s.39,1.48,1.16,2.02c.77.54,1.9,1.05,3.38,1.53,2.51.82,4.4,1.84,5.68,3.07,1.28,1.23,1.92,2.86,1.92,4.87,0,2.14-.75,3.8-2.26,5-1.51,1.19-3.52,1.79-6.04,1.79-1.52,0-2.99-.29-4.4-.86-1.42-.57-2.58-1.45-3.49-2.64-.91-1.19-1.37-2.7-1.37-4.55h4.73c0,1.49.42,2.54,1.25,3.14.83.6,1.92.91,3.28.91,1.22,0,2.12-.26,2.7-.79.58-.53.87-1.18.87-1.97Zm29.82-18.04v24.46h-4.71v-24.46h4.71Zm40.11,12.78c0,3.73-.9,6.66-2.7,8.8-1.8,2.14-4.14,3.21-7.03,3.21s-5.22-1.07-7.04-3.21c-1.82-2.14-2.74-5.07-2.74-8.8v-1.09c0-3.73.91-6.67,2.72-8.81,1.81-2.15,4.16-3.22,7.03-3.22s5.23,1.07,7.04,3.22c1.81,2.15,2.72,5.08,2.72,8.81v1.09Zm-4.78-1.12c0-2.55-.43-4.5-1.3-5.83-.87-1.33-2.1-2-3.68-2s-2.79.66-3.65,1.97c-.87,1.32-1.3,3.24-1.31,5.77v1.21c0,2.53.44,4.47,1.31,5.83.87,1.36,2.1,2.03,3.69,2.03s2.8-.67,3.65-2.01c.85-1.34,1.29-3.26,1.3-5.77v-1.21Zm25.09,12.8v-24.46h8.03c2.65,0,4.73.54,6.22,1.63,1.5,1.09,2.25,2.77,2.25,5.06,0,1.11-.26,2.13-.79,3.06-.52.93-1.35,1.64-2.48,2.12,1.34.36,2.31,1.05,2.89,2.08.59,1.03.88,2.13.88,3.31,0,2.35-.7,4.14-2.11,5.35-1.4,1.22-3.41,1.83-6,1.86h-8.9Zm4.73-20.38v6.15h3.3c2.49,0,3.74-1.01,3.74-3.02s-1.19-3.08-3.59-3.12h-3.46Zm0,9.71v6.6h4.02c1.21,0,2.11-.3,2.68-.91.57-.61.86-1.37.86-2.29,0-2.19-1.04-3.33-3.11-3.41h-4.45Zm46.64,10.67v-10.48h-9.2v10.48h-4.73v-24.46h4.73v9.91h9.2v-9.91h4.72v24.46h-4.72Zm40.33,0l-1.57-5.04h-8.28l-1.57,5.04h-5l8.52-24.46h4.37l8.57,24.46h-5.03Zm-2.85-9.12l-2.86-9.19-2.88,9.19h5.74Zm-5-16.7l3.08-5.19h4.95l-4.35,5.19h-3.68Zm50.54,1.36v24.46h-4.71l-9.18-16.11v16.11h-4.73v-24.46h4.73l9.18,16.13v-16.13h4.71Zm45.94,24.46v-24.46h8.03c2.65,0,4.73.54,6.22,1.63,1.5,1.09,2.25,2.77,2.25,5.06,0,1.11-.26,2.13-.79,3.06-.52.93-1.35,1.64-2.48,2.12,1.34.36,2.31,1.05,2.89,2.08.59,1.03.88,2.13.88,3.31,0,2.35-.7,4.14-2.11,5.35-1.4,1.22-3.41,1.83-6,1.86h-8.9Zm4.73-20.38v6.15h3.3c2.49,0,3.74-1.01,3.74-3.02s-1.19-3.08-3.59-3.12h-3.46Zm0,9.71v6.6h4.02c1.21,0,2.11-.3,2.68-.91.57-.61.86-1.37.86-2.29,0-2.19-1.04-3.33-3.11-3.41h-4.45Zm46.79,10.67l-1.57-5.04h-8.28l-1.57,5.04h-5l8.52-24.46h4.37l8.57,24.46h-5.03Zm-2.85-9.12l-2.86-9.19-2.88,9.19h5.74Zm39.68,9.12l-4.28-8.97h-3.76v8.97h-4.73v-24.46h8.52c2.63,0,4.7.63,6.2,1.89,1.5,1.26,2.25,3.09,2.25,5.5,0,1.77-.37,3.2-1.1,4.28-.73,1.09-1.73,1.93-2.99,2.54l4.95,10.01v.24h-5.08Zm-8.03-20.38v7.34h3.79c1.25,0,2.18-.33,2.8-1,.62-.67.93-1.55.93-2.65s-.3-2.03-.91-2.7c-.61-.67-1.55-1-2.82-1h-3.79Zm45.48,20.38l-4.28-8.97h-3.76v8.97h-4.73v-24.46h8.52c2.63,0,4.7.63,6.2,1.89,1.5,1.26,2.25,3.09,2.25,5.5,0,1.77-.37,3.2-1.1,4.28-.73,1.09-1.73,1.93-2.99,2.54l4.95,10.01v.24h-5.08Zm-8.03-20.38v7.34h3.79c1.25,0,2.18-.33,2.8-1,.62-.67.93-1.55.93-2.65s-.3-2.03-.91-2.7c-.61-.67-1.55-1-2.82-1h-3.79Zm34.66-4.08l4.75,11.02,4.75-11.02h5.17l-7.53,15.59v8.87h-4.78v-8.87l-7.53-15.59h5.17Z"/>
</svg>