<?xml version="1.0" encoding="UTF-8"?>
<svg id="Layer_2" data-name="Layer 2" xmlns="http://www.w3.org/2000/svg" viewBox="0 0 115.95 135.53">
  <defs>
    <style>
      .cls-1 {
        fill: #191a1a;
        stroke-width: 0px;
      }
    </style>
  </defs>
  <path class="cls-1" d="m34.64,54.59S50.45,25.6,50.45,0c14.31,26.73,29.74,40.43,29.74,40.43,0,0,18.07-5.8,22.96-13.14s12.8-17.13,12.8-17.13c0,0-1.13,30.87-4.52,36.14s-16.56,17.69-16.94,21.08,5.65,18.07,5.65,29.74-4.52,31.25-7.15,33.13-8.66-31.62-27.86-44.42c-.38,18.82-6.02,42.92-16.94,49.69-1.13-15.06-2.64-45.18-2.64-45.18,0,0-29.36-.75-45.55-4.89,11.29-6.4,34.64-30.87,34.64-30.87Z"/>
</svg>