<?xml version="1.0" encoding="UTF-8"?>
<svg id="Layer_2" data-name="Layer 2" xmlns="http://www.w3.org/2000/svg" viewBox="0 0 54.91 201.41">
  <defs>
    <style>
      .cls-1 {
        fill: #e2d1cc;
      }

      .cls-1, .cls-2 {
        stroke-width: 0px;
      }

      .cls-2 {
        fill: #64877b;
      }
    </style>
  </defs>
  <path class="cls-1" d="m54.91,90.58c0,7.44-.25,14.49-.82,20.84-.74-5.44-2.5-9.48-4.17-9.34-1.18.11-2.03,2.27-2.34,5.46-1.5-3.04-3.62-4.93-4.81-4.82-1.54.13-2.53,3.81-2.48,8.69-1.06-4.81-3.49-8.22-6.01-8-2.9.26-4.85,5.28-4.46,11.34-.89-3.73-2.26-6.23-3.58-6.11-1.58.14-2.57,3.99-2.47,9.05-1.99-7.83-3.14-17.12-3.14-27.11,0-27.76,8.9-50.26,19.88-50.26s14.4,22.5,14.4,50.26Z"/>
  <path class="cls-2" d="m40.01,40.31c-.61-7.67-3.4-39.38-15.38-34.44-9.73,3.56-13.82,13.51-15.48,23.2-1.67,10.02-1.61,20.42-1.21,30.63,1.54,26.22,3.99,52.43,4.11,78.83.09,15.86-.23,31.9-3.05,47.59-.99,5.24-2.33,10.48-4.68,15.3,0,0-.92-.39-.92-.39,3.14-9.94,3.25-20.56,3.41-30.92.07-10.45-.42-20.91-.99-31.37-1.24-20.92-3.07-41.84-4.7-62.84C-.05,60.04-1.04,43.59,2.15,27.7,4.22,16.71,10.32,4.74,21.76.96c3.11-1.19,6.86-1.47,9.83.3,7.4,4.59,8.55,15.26,9.4,23.11.41,5.34.44,10.65.02,15.95l-1-.02h0Z"/>
</svg>