<?xml version="1.0" encoding="UTF-8"?>
<svg id="Layer_2" data-name="Layer 2" xmlns="http://www.w3.org/2000/svg" viewBox="0 0 329.25 230.98">
  <defs>
    <style>
      .cls-1 {
        fill: none;
      }

      .cls-1, .cls-2, .cls-3 {
        stroke-width: 0px;
      }

      .cls-2 {
        fill: #e2d1cc;
      }

      .cls-3 {
        fill: #dab57f;
      }
    </style>
  </defs>
  <polyline class="cls-3" points="205.69 137.2 201.36 227.4 179.36 226.35 183.74 135.22"/>
  <path class="cls-3" d="m70.92,156.26l-12.86,67.02-24.27,1.58,20.43-75.65c6.4-13.85,7.15-29.64,2.1-44.03l.3-13.4c2.76,8.16,8.58,15.22,16.42,20.47,5.04,14.38,4.28,30.16-2.11,44Z"/>
  <path class="cls-2" d="m329.19,63.36c.41,6.22-1.44,12.58-5.63,17.79-3.78,4.7-10.47,5.84-15.62,2.69l-37.04-22.72c-.92,2.31-1.6,3.52-1.6,3.52,0,0-14.24,11.88-23.83,19.65.58,13.37-3.09,25.74-9.59,35.15l5.41,104.42-21.97,1.43-5.83-89.31c-2.24.61-4.54,1.01-6.91,1.16-3.1.2-6.15,0-9.12-.6-10.66-2.11-21.63-1.58-32.29.51-2.61.51-5.29.87-8.04,1.05-17.88,1.17-34.22-5.31-44.82-16.24l-.6.04c-1,.07-1.98.11-2.96.12l-15.62,44.09,4.58,62.68-33.18,2.17.7-8.17,5.68-66.55c6.39-13.84,7.15-29.62,2.11-44-7.84-5.25-13.66-12.32-16.42-20.47h0c-.94-2.76-1.52-5.63-1.71-8.61-.33-5.02.48-9.89,2.24-14.49h0c6.43-16.8,25.63-29.77,49.07-31.3,10.79-.7,21,1.11,29.71,4.82,4.74,2.02,9.91,2.73,15.04,2.39h.09c3.8-.25,7.54-.16,11.16.26,7.27.83,14.51-1.11,20.68-5.04,5.09-3.25,10.83-5.24,16.99-5.64.42-.03.84-.03,1.27-.04,13.67-6.13,42.6-18.17,62.65-19.83,2.96-1.57,6.2-2.4,9.45-2.52l.07-.14c1.7.65,4.53,1.13,6.36-1.81l.02.29,9.17-10.11,1.21,18.59,30.6,27.26c5.22,4.66,8.11,10.99,8.54,17.5Z"/>
  <path class="cls-3" d="m279.05.64l.6,9.18c-1.82,2.93-4.66,2.46-6.36,1.81l.82-1.57,4.94-9.42Z"/>
  <line class="cls-1" x1="274.12" y1="10.06" x2="273.3" y2="11.63"/>
  <line class="cls-1" x1="279.65" y1="9.82" x2="279.53" y2="8.01"/>
  <path class="cls-3" d="m80.49,46.66s-17.37-13.82-36.8,2.78c-19.43,16.61-33.7,32.48-32.38,51.84s-1.3,67.3-11.31,72.18c18.83,5.44,40.31,5.99,43.19-9.08s-.35-95.75,37.3-117.73Z"/>
  <path class="cls-3" d="m195.28,45.56c8.46,1.18,14.82-7.91,23.12-9.92,2.64-.64,5.39-.54,8.09-.78,10.86-.98,20.48-7.47,31.19-9.55,1.6-.31,3.26-.54,4.67-1.36,1.14-.67,2.03-1.7,2.89-2.7,3.05-3.55,6.11-7.11,9.16-10.66-7.37,1.01-14.74,2.01-22.11,3.02-6.44.88-12.9,1.76-19.22,3.26-9.01,2.14-17.7,5.53-25.84,9.94-3.49,1.89-7.3,3.57-9.46,6.95-.61.96-4.24,11.57-2.49,11.81Z"/>
</svg>