<?xml version="1.0" encoding="UTF-8"?>
<svg id="Layer_2" data-name="Layer 2" xmlns="http://www.w3.org/2000/svg" viewBox="0 0 90.31 537.48">
  <defs>
    <style>
      .cls-1 {
        fill: #191a1a;
        stroke-width: 0px;
      }
    </style>
  </defs>
  <path class="cls-1" d="m75.63,132.53c-.99,4.67-13.01,3.91-24.51,2.19l2.29-74.7h-2.68V15.92c2.08-1.63,3.41-4.16,3.41-7.01,0-4.92-3.99-8.92-8.92-8.92s-8.92,3.99-8.92,8.92c0,2.76,1.25,5.22,3.22,6.86v44.25h-2.68l2.23,72.61c-1.01-.19-1.97-.38-2.85-.55-17.56-3.41-28.17-5.47-33.75.95-1.48,1.71-3.68,5.42-1.72,11.11,0,0,11.79-.22,11.47-.13,2.76-.77,13.38,1.29,21.14,2.8,2.01.39,4.08.79,6.17,1.18l5.59,372.42,6.44,17.07,4.75-17.07-5.56-370.54c4.92.7,9.76,1.18,14.22,1.18.16,0,.32,0,.47,0,17.87-.13,23.37-8.46,24.84-15.41l-14.68-3.1Z"/>
</svg>