<?xml version="1.0" encoding="UTF-8"?>
<svg id="Layer_1" data-name="Layer 1" xmlns="http://www.w3.org/2000/svg" viewBox="0 0 270.65 233.59">
  <defs>
    <style>
      .cls-1 {
        stroke: #fff;
      }

      .cls-1, .cls-2 {
        stroke-miterlimit: 10;
      }

      .cls-1, .cls-3 {
        fill: #c20012;
      }

      .cls-2 {
        fill: none;
        stroke: #64877b;
      }

      .cls-4 {
        fill: #e2d1cc;
      }

      .cls-4, .cls-3, .cls-5 {
        stroke-width: 0px;
      }

      .cls-5 {
        fill: #64877b;
      }
    </style>
  </defs>
  <g>
    <path class="cls-2" d="m179.39,24.03c.42-.02.83-.04,1.25-.05-.22-.25-.62-.29-1.25.05Z"/>
    <path class="cls-5" d="m240.55,101.04c-1.64-1.3-3.44-2.53-5.25-3.76,3.52-2.44,7.06-4.87,10.59-7.31-9.89-6.62-21.01-15.68-19.74-27.52.45-4.21,2.52-8.28,2.18-12.48.49-.27.99-.55,1.48-.82-1.08-1.62-2.25-3.17-3.51-4.66-.55-.79-1.22-1.53-1.96-2.21-11.1-11.87-27.43-18.83-43.7-18.3.8.92-.79,4.74-3.28,5.27-2.2.48-4.39.94-6.59,1.42-1.59-.89-3.25-1.64-4.93-2.2.6-.23-11.35-1.39-15.99,2.94.23,1.21.59,2.4,1.06,3.54-1.2.26-2.39.52-3.59.78-5.87-5.33-11.26-11.41-17.32-16.54-10.58-8.95-12.45,8.46-31.43-4.5,3.67,6.62.81,10.87,4.49,17.49-1.63.75-3.2,1.61-4.72,2.62-3.98,2.63-7.35,6.51-9.36,10.85l-.28-1.46c-16.59-.91-33.41,6.19-44.43,18.61-.58.21-1.17.41-1.75.61.79,4.57,3.05,8.84,6.29,12.15-2.22,2.18-3.9,4.88-4.78,7.87.74.87,1.45,1.77,2.15,2.67-6.08,3.71-12.17,7.44-18.26,11.15-6.16,3.77-13.27,10.36-10.09,16.86,4.48,9.19,21.76,2.28,27.13,10.98-5.07,2.44-10.12,4.89-15.19,7.34,4.77,1.77,8.66,5.79,10.27,10.62-5.08.33-9.41,5.25-9.07,10.33.26,3.89,3.21,7.32,6.86,8.56-.34.21-.67.43-1.02.65,4.46,2.42,8.92,4.85,13.38,7.27-8.91,2.17-14.88,12.48-12.34,21.29,16.79-.57,33.68,6.71,44.8,19.3-3.27.35-6.18,2.88-6.98,6.07,10.4-4.15,21.67-5.91,32.85-5.42,1.32,2.61,2.73,5.2,3.76,7.84,8.06-4.37,16.13-8.14,23.11-15.21,5.55,9,18.27,12.73,27.81,8.16.05-1.4.11-2.79.16-4.19,11.57,3.87,24.01-.87,35.78-4.12,1.57-.43,3.34-.82,4.77-.03,1.17.64,1.82,1.92,2.79,2.84,3.52,3.3,9.1.72,13.59-1.02,3.59-1.39,7.42-2.12,11.27-2.18.47-12.4,9.66-24.34,21.84-27.23,2.14-8.43-10.46-13.01-14.21-20.61,2.67-.78,5.32-1.55,7.98-2.33-1.75-3.22-3.84-6.24-6.2-9.04,2.16-2.9,5.1-5.58,7.11-8.58,3.26-4.89.16-14.03-4.51-13.19,6.67-3.6,3.59-15.9-2.99-21.15ZM46.93,166.17c.59.09,1.19.17,1.79.26-.62.55-1.35.64-1.79-.26Z"/>
  </g>
  <g>
    <path class="cls-1" d="m190.59,127.66c-.31.49-.64.99-.97,1.49-2.33,3.52-4.9,7.11-7.65,10.69-6.28,8.17-13.43,16.33-20.49,23.74-14.22-7.18-20.32-14.4-32.7-35.4-3.98,1.16-8.03,2.35-12.09,3.54,4.72,15.75,20.63,34.5,35,41.74-1.5,1.46-2.98,2.87-4.41,4.2-.32.31-.65.6-.97.9-3.6.46-7.28.48-10.98.03-.33-.31-.66-.61-1-.93-1.49-1.39-3.02-2.84-4.57-4.35-3.16-3.08-6.46-6.39-9.76-9.87-7.08-7.44-14.25-15.63-20.52-23.82,15.07-11.64,32.25-15.8,51.5-13.47,1.05-4.37,2.04-8.47,3.02-12.58-17.59-3.67-38.98.39-54.62,10.15-.75.47-1.55,1.5-1.62,2.33-.28,3.49-.45,6.98-.61,10.47-.67-.9-1.33-1.81-1.98-2.71-.09-11.8,4.31-23.65,13.1-32.3.75-.73,1.42-1.84,1.56-2.86.62-4.14,1.1-8.3,1.69-13.14.7.16,1.38.33,2.05.52,4.68,1.33,8.75,3.53,12.25,6.11,7.91,5.82,12.85,13.56,14.98,17.4,2.12-3.81,6.98-11.43,14.77-17.24,2.89,20.44-1.82,37.85-13.61,53.46,3,3.24,5.9,6.37,9.02,9.76,12.84-15.96,18.92-33.42,18.65-53.09,0-.87-.5-2.11-1.18-2.55-3.87-2.54-7.85-4.92-12.55-7.81.39-.3.8-.59,1.22-.87,12.83,4.85,22.8,15.39,27.24,29.95.31,1.04.83,2.23,1.63,2.88,1.5,1.22,3.03,2.42,4.6,3.64Z"/>
    <path class="cls-1" d="m111.53,85.51c-.59,4.83-1.07,9-1.69,13.14-.15,1.01-.81,2.12-1.56,2.86-8.79,8.65-13.19,20.5-13.1,32.3-3.84-5.4-7.18-10.73-9.74-15.75-7.41-14.58-8.24-26.68,4.53-30.98,7.26-2.45,13.72-2.86,19.41-1.97.73.11,1.45.24,2.16.4Z"/>
    <path class="cls-3" d="m146.3,178.57c-1.91,1.77-3.76,3.42-5.5,4.94-1.73-1.5-3.57-3.16-5.48-4.91,3.7.45,7.38.44,10.98-.03Z"/>
    <path class="cls-3" d="m154,113.57c-.99,4.11-1.98,8.21-3.02,12.58-19.25-2.33-36.43,1.83-51.5,13.47-.8-1.03-1.57-2.07-2.33-3.1.17-3.5.33-6.98.61-10.47.07-.82.87-1.85,1.62-2.33,15.64-9.76,37.03-13.82,54.62-10.15Z"/>
    <path class="cls-3" d="m161.48,163.58c-3.31,3.49-6.62,6.81-9.79,9.89-14.37-7.25-30.28-25.99-35-41.74,4.06-1.19,8.11-2.38,12.09-3.54,12.39,21,18.48,28.22,32.7,35.4Z"/>
    <path class="cls-3" d="m169.64,102.43c.27,19.67-5.8,37.13-18.65,53.09-3.12-3.38-6.02-6.51-9.02-9.76,11.79-15.6,16.5-33.02,13.61-53.46.1-.09.21-.17.32-.24,4.7,2.88,8.68,5.26,12.55,7.81.68.45,1.17,1.68,1.18,2.55Z"/>
    <path class="cls-1" d="m195.87,118.62c-1.51,2.93-3.3,5.95-5.28,9.04-1.56-1.22-3.09-2.41-4.6-3.64-.8-.65-1.32-1.84-1.63-2.88-4.44-14.56-14.41-25.1-27.24-29.95,4.05-2.75,8.81-4.96,14.32-5.95,5.88-1.06,12.61-.73,20.21,1.84,12.93,4.36,11.92,16.71,4.22,31.54Z"/>
    <g>
      <path class="cls-4" d="m165.82,79.36c-5.26-1.46-10.43-2.81-15.53-4.4-.76-.23-1.22-1.51-1.76-2.35-2.46-3.83-4.9-7.67-7.72-12.09-7.99,9.94-12.95,20.39-14.99,31.63-3.5-2.58-7.57-4.78-12.25-6.11,3.75-16.6,12.7-31.12,26.88-43.79,12.03,9.97,20.35,22.3,25.36,37.11Z"/>
      <path class="cls-4" d="m129.75,173.32c-20.58,11.9-43.37,13.98-68.08,5.8,2.69-15.34,9.02-28.6,19.37-40.31,1.46,5.32,2.89,10.32,4.13,15.37.16.65-.65,1.55-1.04,2.32-2.2,4.25-4.41,8.49-6.87,13.23,15.57,2.56,29.57.42,42.72-6.28,3.3,3.48,6.6,6.79,9.76,9.87Z"/>
      <path class="cls-4" d="m219.54,178.67c-11.86,5.5-29.98,6.86-42.89,3.87,2.61-3.16,5.78-7.12,9.14-10.89.59-.66,2.03-.69,3.09-.75,4.69-.29,9.39-.49,14.75-.75-4.82-12.73-12.03-22.71-21.66-30.31,2.75-3.58,5.32-7.17,7.65-10.69,15.69,12.02,25.65,28.46,29.92,49.52Z"/>
      <path class="cls-4" d="m189.94,162.38c-15.05,26.22-48.56,35.89-75.42,22.09-.75-.38-1.43-.9-2.19-1.38,4.62-1.91,9.02-3.77,13.46-5.51.88-.35,2.02-.56,2.89-.31,2.2.62,4.42,1.06,6.64,1.33,3.7.45,7.38.44,10.98-.03,17.55-2.24,33.06-14.91,38.52-33.96,1.49,1.56,2.68,2.7,3.72,3.95,6.47,7.68,6.34,5.22,1.4,13.82Z"/>
      <path class="cls-4" d="m111.84,82.94c-.11.88-.22,1.73-.31,2.57-.59,4.83-1.07,9-1.69,13.14-.15,1.01-.81,2.12-1.56,2.86-8.79,8.65-13.19,20.5-13.1,32.3.08,11.36,4.29,22.68,12.71,31.05.24.24.32.64.7,1.4-3.88.8-7.54,1.74-11.25,2.2-1.05.13-2.64-.83-3.37-1.77-10.25-13.23-12.98-32.06-8.53-48.63,2.24-8.31,6.28-16.07,12.08-22.25,3.54-3.77,7.61-7.05,11.85-10.7.81-.71,1.64-1.42,2.47-2.17Z"/>
      <path class="cls-4" d="m198.01,133.31c-2.57-1.97-5.04-3.82-7.42-5.66-1.56-1.22-3.09-2.41-4.6-3.64-.8-.65-1.32-1.84-1.63-2.88-4.44-14.56-14.41-25.1-27.24-29.95-8.68-3.28-18.67-3.96-29.15-1.51,1.5-4.26,2.75-8.15,4.32-11.92.29-.69,1.83-1.12,2.83-1.22,13.29-1.42,25.43,1.59,36.31,8.7,1.06.68,2.1,1.42,3.13,2.18,11.09,8.23,18.04,18.69,21.3,31.2,1.21,4.62,1.91,9.52,2.14,14.7Z"/>
    </g>
  </g>
</svg>