<?xml version="1.0" encoding="UTF-8"?>
<svg id="Layer_2" data-name="Layer 2" xmlns="http://www.w3.org/2000/svg" viewBox="0 0 354.67 170.33">
  <defs>
    <style>
      .cls-1 {
        stroke: #fff;
        stroke-miterlimit: 10;
        stroke-width: 3px;
      }

      .cls-1, .cls-2 {
        fill: #5571b4;
      }

      .cls-2, .cls-3 {
        stroke-width: 0px;
      }

      .cls-3 {
        fill: #f1d335;
      }
    </style>
  </defs>
  <path class="cls-2" d="m189.35,33.23c2.81-2.63,6.02-4.78,9.22-6.91,16.26-10.85,33.21-21.77,52.45-25.21,16.66-2.98,34.33.07,49.03,8.46,3.77,2.15,7.73,5.29,7.88,9.63.08,2.23-.91,4.37-2.13,6.24-7.33,11.34-21.98,15.12-35.34,17.02-9.49,1.35-19.05,2.21-28.62,2.58"/>
  <path class="cls-1" d="m242.84,42.4c11.13-14.42,28.65-24.81,46.83-23.71,16.8,1.01,31.62,11.27,48.07,14.84,3.56.77,7.35,1.3,10.24,3.52,1.68,1.29,2.93,3.08,3.8,5.01,4.36,9.76-2.06,21.83-11.64,26.6s-21.05,3.71-31.31.69c-10.26-3.02-19.93-7.86-30.28-10.54-11.2-2.91-22.27-2.16-33.84-2.15,16.6-2.28,33.75-.37,49.44,5.5,2.23.83,4.47,1.77,6.32,3.26,2.55,2.05,4.2,5,5.78,7.87,3.28,5.96,6.61,12.07,7.77,18.77,1.87,10.83-2.12,21.72-6.05,31.99-1.19,3.12-2.49,6.39-5.04,8.54-2.1,1.77-4.83,2.59-7.52,3.16-14.61,3.1-30.46-.2-42.61-8.89-12.15-8.69-20.41-22.62-22.2-37.44-.44-3.68-.52-7.45-1.72-10.95s-4.33-7.99-7.96-8.73c1.21,11.45-2.4,23.69,2.33,34.19,2.07,4.59,5.57,8.37,8.14,12.7,4.94,8.32,6.24,18.26,7.04,27.91.37,4.48.59,9.25-1.61,13.17-3.78,6.73-12.75,8.02-20.45,8.56-4.96.34-10.14.65-14.7-1.33-4.45-1.93-7.76-5.85-10.11-10.08-5.24-9.46-6.3-20.59-7.26-31.35-1.02-11.54-1.93-23.75,3.2-34.13,3.09-6.27,7.91-11.76,6.86-18.67-13.96,2.07-24.55,13.48-32.69,25.01-4.06,5.75-7.84,11.75-10.58,18.24-5.11,12.1-6.55,25.78-13.59,36.87-7.38,11.64-21.27,19.27-34.99,17.85-13.71-1.43-26.2-12.64-27.78-26.34-1.52-13.17,6.22-25.44,13.64-36.43,3.79-5.63,7.69-11.36,13.12-15.43,5.24-3.93,11.64-6.1,16.83-10.09,2.59-1.99,4.86-4.42,7.71-6.02,10.76-6.06,27.57,1.07,37.88-5.72-13.4.94-27.14-1.89-40.14,1.47-13.96,3.6-25.17,13.87-34.76,24.62-9.6,10.76-18.39,22.52-30.2,30.79-11.45,8.02-25.45,12.35-39.43,12.19-4.03-.05-8.28-.54-11.52-2.93-4.62-3.42-5.94-9.73-6.25-15.48-.33-6.02.09-12.2,2.34-17.79,3.09-7.68,9.42-13.67,16.39-18.14,9.92-6.36,21.29-10.07,32.66-13.17,15.51-4.23,31.28-7.47,47.2-9.68,8.86-1.23,12.95-8.13,21.28-4.86-17.51-5.07-36.64-10.08-53.51-3.18-6.62,2.71-12.39,7.09-18.41,10.95s-12.6,7.32-19.74,7.8c-7.14.48-14.92-2.7-18.02-9.15-2.54-5.29-1.53-11.56,0-17.23,1.3-4.84,2.95-9.64,5.54-13.94,6.01-9.97,16.75-16.46,28.04-19.3s23.16-2.33,34.71-.82c29.22,3.84,57.19,14.01,84.65,24.7"/>
  <ellipse class="cls-3" cx="182.82" cy="51.94" rx="64.09" ry="18.9"/>
</svg>