<svg id="eSFLDlO6sXK1" xmlns="http://www.w3.org/2000/svg" xmlns:xlink="http://www.w3.org/1999/xlink" viewBox="0 0 1920 1080" shape-rendering="geometricPrecision" text-rendering="geometricPrecision" project-id="36f3ee730d134593b0d545cbbab2c51e" export-id="158e258f17384959b57f17c497fc2dab" cached="true" style="background-color:#2e3b45">
<style><![CDATA[
#eSFLDlO6sXK16 {animation-name: eSFLDlO6sXK16_c_o, eSFLDlO6sXK16_s_do;animation-duration: 8457.142857142857ms;animation-fill-mode: forwards;animation-timing-function: linear;animation-direction: normal;animation-iteration-count: 1;}@keyframes eSFLDlO6sXK16_c_o { 0% {opacity: 1} 40.033784% {opacity: 1} 40.067568% {opacity: 0} 100% {opacity: 0}}@keyframes eSFLDlO6sXK16_s_do { 0% {stroke-dashoffset: 0} 18.918919% {stroke-dashoffset: 0;animation-timing-function: cubic-bezier(0.55,0.085,0.68,0.53)} 39.864865% {stroke-dashoffset: 1745.75} 100% {stroke-dashoffset: 1745.75}} #eSFLDlO6sXK17 {animation: eSFLDlO6sXK17_c_o 8457.142857142857ms linear 1 normal forwards}@keyframes eSFLDlO6sXK17_c_o { 0% {opacity: 1} 37.297297% {opacity: 1} 37.331081% {opacity: 0} 100% {opacity: 0}} #eSFLDlO6sXK19 {animation-name: eSFLDlO6sXK19_c_o, eSFLDlO6sXK19_s_do;animation-duration: 8457.142857142857ms;animation-fill-mode: forwards;animation-timing-function: linear;animation-direction: normal;animation-iteration-count: 1;}@keyframes eSFLDlO6sXK19_c_o { 0% {opacity: 1} 1.351351% {opacity: 1} 36.486486% {opacity: 1} 36.52027% {opacity: 0} 37.837838% {opacity: 0.69} 100% {opacity: 0.69}}@keyframes eSFLDlO6sXK19_s_do { 0% {stroke-dashoffset: 0} 15.540541% {stroke-dashoffset: 0} 36.486486% {stroke-dashoffset: 1745.75} 100% {stroke-dashoffset: 1745.75}} #eSFLDlO6sXK20 {animation: eSFLDlO6sXK20_s_do 8457.142857142857ms linear 1 normal forwards}@keyframes eSFLDlO6sXK20_s_do { 0% {stroke-dashoffset: 0} 11.486486% {stroke-dashoffset: 0} 32.432432% {stroke-dashoffset: 1745.75} 100% {stroke-dashoffset: 1745.75}} #eSFLDlO6sXK22 {animation-name: eSFLDlO6sXK22_c_o, eSFLDlO6sXK22_s_do;animation-duration: 8457.142857142857ms;animation-fill-mode: forwards;animation-timing-function: linear;animation-direction: normal;animation-iteration-count: 1;}@keyframes eSFLDlO6sXK22_c_o { 0% {opacity: 1} 29.054054% {opacity: 1} 29.087838% {opacity: 0} 100% {opacity: 0}}@keyframes eSFLDlO6sXK22_s_do { 0% {stroke-dashoffset: 0} 6.756757% {stroke-dashoffset: 0} 29.054054% {stroke-dashoffset: 1745.75} 100% {stroke-dashoffset: 1745.75}} #eSFLDlO6sXK23 {animation: eSFLDlO6sXK23_c_o 8457.142857142857ms linear 1 normal forwards}@keyframes eSFLDlO6sXK23_c_o { 0% {opacity: 0} 26.756757% {opacity: 0} 26.891892% {opacity: 1} 100% {opacity: 1}} #eSFLDlO6sXK25 {animation: eSFLDlO6sXK25_s_do 8457.142857142857ms linear 1 normal forwards}@keyframes eSFLDlO6sXK25_s_do { 0% {stroke-dashoffset: 0} 24.324324% {stroke-dashoffset: 1745.75} 100% {stroke-dashoffset: 1745.75}} #eSFLDlO6sXK27 {animation-name: eSFLDlO6sXK27_c_o, eSFLDlO6sXK27_s_do;animation-duration: 8457.142857142857ms;animation-fill-mode: forwards;animation-timing-function: linear;animation-direction: normal;animation-iteration-count: 1;}@keyframes eSFLDlO6sXK27_c_o { 0% {opacity: 1} 21.959459% {opacity: 1} 21.993243% {opacity: 0} 100% {opacity: 0}}@keyframes eSFLDlO6sXK27_s_do { 0% {stroke-dashoffset: 0} 7.77027% {stroke-dashoffset: 0;animation-timing-function: cubic-bezier(0.55,0.085,0.68,0.53)} 21.959459% {stroke-dashoffset: 1745.75} 100% {stroke-dashoffset: 1745.75}} #eSFLDlO6sXK28 {animation: eSFLDlO6sXK28_c_o 8457.142857142857ms linear 1 normal forwards}@keyframes eSFLDlO6sXK28_c_o { 0% {opacity: 0} 21.182432% {opacity: 0} 21.317568% {opacity: 1} 24.662162% {opacity: 1} 24.695946% {opacity: 0} 100% {opacity: 0}} #eSFLDlO6sXK29 {animation: eSFLDlO6sXK29_c_o 8457.142857142857ms linear 1 normal forwards}@keyframes eSFLDlO6sXK29_c_o { 0% {opacity: 1} 19.222973% {opacity: 1} 19.256757% {opacity: 0} 100% {opacity: 0}} #eSFLDlO6sXK31 {animation-name: eSFLDlO6sXK31_c_o, eSFLDlO6sXK31_s_do;animation-duration: 8457.142857142857ms;animation-fill-mode: forwards;animation-timing-function: linear;animation-direction: normal;animation-iteration-count: 1;}@keyframes eSFLDlO6sXK31_c_o { 0% {opacity: 1} 14.155405% {opacity: 1} 14.189189% {opacity: 0} 100% {opacity: 0}}@keyframes eSFLDlO6sXK31_s_do { 0% {stroke-dashoffset: 0;animation-timing-function: cubic-bezier(0.55,0.085,0.68,0.53)} 14.189189% {stroke-dashoffset: 1745.75} 100% {stroke-dashoffset: 1745.75}} #eSFLDlO6sXK32 {animation: eSFLDlO6sXK32_c_o 8457.142857142857ms linear 1 normal forwards}@keyframes eSFLDlO6sXK32_c_o { 0% {opacity: 0} 12.702703% {opacity: 0} 13.074324% {opacity: 1} 100% {opacity: 1}} #eSFLDlO6sXK35 {animation: eSFLDlO6sXK35_s_do 8457.142857142857ms linear 1 normal forwards}@keyframes eSFLDlO6sXK35_s_do { 0% {stroke-dashoffset: 0} 74.324324% {stroke-dashoffset: 0} 81.081081% {stroke-dashoffset: 646.82} 100% {stroke-dashoffset: 646.82}} #eSFLDlO6sXK36 {animation-name: eSFLDlO6sXK36_c_o, eSFLDlO6sXK36_s_do;animation-duration: 8457.142857142857ms;animation-fill-mode: forwards;animation-timing-function: linear;animation-direction: normal;animation-iteration-count: 1;}@keyframes eSFLDlO6sXK36_c_o { 0% {opacity: 1} 77.027027% {opacity: 1} 77.364865% {opacity: 0} 100% {opacity: 0}}@keyframes eSFLDlO6sXK36_s_do { 0% {stroke-dashoffset: 0} 69.256757% {stroke-dashoffset: 0} 76.013514% {stroke-dashoffset: 646.82} 100% {stroke-dashoffset: 646.82}} #eSFLDlO6sXK37 {animation: eSFLDlO6sXK37_s_do 8457.142857142857ms linear 1 normal forwards}@keyframes eSFLDlO6sXK37_s_do { 0% {stroke-dashoffset: 0} 58.108108% {stroke-dashoffset: 0} 64.864865% {stroke-dashoffset: 646.82} 100% {stroke-dashoffset: 646.82}} #eSFLDlO6sXK38 {animation: eSFLDlO6sXK38_s_do 8457.142857142857ms linear 1 normal forwards}@keyframes eSFLDlO6sXK38_s_do { 0% {stroke-dashoffset: 0} 63.986486% {stroke-dashoffset: 0} 70.743243% {stroke-dashoffset: 646.82} 100% {stroke-dashoffset: 646.82}} #eSFLDlO6sXK39 {animation: eSFLDlO6sXK39_s_do 8457.142857142857ms linear 1 normal forwards}@keyframes eSFLDlO6sXK39_s_do { 0% {stroke-dashoffset: 0} 51.418919% {stroke-dashoffset: 0} 58.851351% {stroke-dashoffset: 646.82} 100% {stroke-dashoffset: 646.82}} #eSFLDlO6sXK40 {animation: eSFLDlO6sXK40_s_do 8457.142857142857ms linear 1 normal forwards}@keyframes eSFLDlO6sXK40_s_do { 0% {stroke-dashoffset: 0} 47.972973% {stroke-dashoffset: 0} 54.72973% {stroke-dashoffset: 646.82} 100% {stroke-dashoffset: 646.82}} #eSFLDlO6sXK41 {animation-name: eSFLDlO6sXK41_c_o, eSFLDlO6sXK41_s_do;animation-duration: 8457.142857142857ms;animation-fill-mode: forwards;animation-timing-function: linear;animation-direction: normal;animation-iteration-count: 1;}@keyframes eSFLDlO6sXK41_c_o { 0% {opacity: 1} 50.675676% {opacity: 1} 50.878378% {opacity: 0} 100% {opacity: 0}}@keyframes eSFLDlO6sXK41_s_do { 0% {stroke-dashoffset: 0} 43.918919% {stroke-dashoffset: 0;animation-timing-function: cubic-bezier(0.61,0.115,0.38,0.915)} 50.675676% {stroke-dashoffset: 646.82} 100% {stroke-dashoffset: 646.82}} #eSFLDlO6sXK42 {animation: eSFLDlO6sXK42_s_do 8457.142857142857ms linear 1 normal forwards}@keyframes eSFLDlO6sXK42_s_do { 0% {stroke-dashoffset: 0} 85.135135% {stroke-dashoffset: 0} 91.891892% {stroke-dashoffset: 646.82} 100% {stroke-dashoffset: 646.82}} #eSFLDlO6sXK43 {animation: eSFLDlO6sXK43_s_do 8457.142857142857ms linear 1 normal forwards}@keyframes eSFLDlO6sXK43_s_do { 0% {stroke-dashoffset: 0} 79.72973% {stroke-dashoffset: 0} 86.486486% {stroke-dashoffset: 646.82} 100% {stroke-dashoffset: 646.82}} #eSFLDlO6sXK44 {animation: eSFLDlO6sXK44_c_o 8457.142857142857ms linear 1 normal forwards}@keyframes eSFLDlO6sXK44_c_o { 0% {opacity: 1} 94.222973% {opacity: 1} 94.256757% {opacity: 0} 100% {opacity: 0}} #eSFLDlO6sXK47 {animation: eSFLDlO6sXK47_c_o 8457.142857142857ms linear 1 normal forwards}@keyframes eSFLDlO6sXK47_c_o { 0% {opacity: 0} 50.27027% {opacity: 0} 50.304054% {opacity: 0} 50.675676% {opacity: 1} 100% {opacity: 1}} #eSFLDlO6sXK48 {animation: eSFLDlO6sXK48_c_o 8457.142857142857ms linear 1 normal forwards}@keyframes eSFLDlO6sXK48_c_o { 0% {opacity: 0} 47.837838% {opacity: 0} 47.871622% {opacity: 0} 47.972973% {opacity: 1} 100% {opacity: 1}} #eSFLDlO6sXK50 {animation: eSFLDlO6sXK50_c_o 8457.142857142857ms linear 1 normal forwards}@keyframes eSFLDlO6sXK50_c_o { 0% {opacity: 1} 45.945946% {opacity: 1} 50.709459% {opacity: 0.672324} 50.743243% {opacity: 0.67} 50.97973% {opacity: 0} 100% {opacity: 0}} #eSFLDlO6sXK52 {animation: eSFLDlO6sXK52_c_o 8457.142857142857ms linear 1 normal forwards}@keyframes eSFLDlO6sXK52_c_o { 0% {opacity: 0} 63.175676% {opacity: 0} 63.547297% {opacity: 0} 63.918919% {opacity: 1} 100% {opacity: 1}} #eSFLDlO6sXK53 {animation: eSFLDlO6sXK53_c_o 8457.142857142857ms linear 1 normal forwards}@keyframes eSFLDlO6sXK53_c_o { 0% {opacity: 0} 69.560811% {opacity: 0} 70.101351% {opacity: 1} 100% {opacity: 1}} #eSFLDlO6sXK55 {animation: eSFLDlO6sXK55_c_o 8457.142857142857ms linear 1 normal forwards}@keyframes eSFLDlO6sXK55_c_o { 0% {opacity: 1} 55.641892% {opacity: 1} 55.743243% {opacity: 0} 100% {opacity: 0}} #eSFLDlO6sXK56 {animation: eSFLDlO6sXK56_c_o 8457.142857142857ms linear 1 normal forwards}@keyframes eSFLDlO6sXK56_c_o { 0% {opacity: 1} 51.216216% {opacity: 1} 51.418919% {opacity: 0} 100% {opacity: 0}} #eSFLDlO6sXK57 {animation: eSFLDlO6sXK57_c_o 8457.142857142857ms linear 1 normal forwards}@keyframes eSFLDlO6sXK57_c_o { 0% {opacity: 0} 57.128378% {opacity: 0} 57.736486% {opacity: 1} 100% {opacity: 1}} #eSFLDlO6sXK58 {animation: eSFLDlO6sXK58_c_o 8457.142857142857ms linear 1 normal forwards}@keyframes eSFLDlO6sXK58_c_o { 0% {opacity: 0} 61.486486% {opacity: 0} 62.195946% {opacity: 1} 100% {opacity: 1}} #eSFLDlO6sXK59 {animation: eSFLDlO6sXK59_c_o 8457.142857142857ms linear 1 normal forwards}@keyframes eSFLDlO6sXK59_c_o { 0% {opacity: 0} 67.432432% {opacity: 0} 68.074324% {opacity: 1} 100% {opacity: 1}} #eSFLDlO6sXK60 {animation: eSFLDlO6sXK60_c_o 8457.142857142857ms linear 1 normal forwards}@keyframes eSFLDlO6sXK60_c_o { 0% {opacity: 0} 74.358108% {opacity: 0} 75.135135% {opacity: 1} 100% {opacity: 1}}
]]></style>
<g transform="matrix(.643335 0 0 0.643333 342.398389 194.770388)"><g transform="matrix(5 0 0 5 533.06191 197.644846)"><g><path d="M170.11,98.8c-.22-1.18-.6-1.28-1.54-1.11-.94.18-1.92,4.12-2.15,8.27-.23,4.14.63,12.62-6.02,17.82-6.63,5.21-8.26-1.59-8.4-6.86-.13-5.27,1.3-10.7,2.42-16.57c1.43-7.44,2-12.56-.24-13.53-2.25-.96-4.38,5.23-5.78,13.31s-2.08,11.24-7.25,20.79-9.08,5-10.74,1.21c-1.65-3.78.78-12.95,3.13-22.17c1.09-4.28,2.17-13.25,2.69-21.62c7.94-3.46,14.13-7.68,18.14-12.4c1.03-1.22.93-1.96.67-2.37-.41-.63-1.38-.73-2.13-.51-.27.08-.93.47-2.5,1.41-2.84,1.7-7.85,4.7-13.89,7.62.18-6.93-.2-12.31-1.53-12.32-2.45-.02-3.06,8.79-3.66,14.67-3.11,1.32-6.38,2.54-9.69,3.51-2.32.68-4.6,1.16-6.81,1.52.94-7.14,1.58-13.44,1.43-15.75-3.26-.46-5.35,9.04-6.77,16.38-9.18.67-16.43-.83-19-1.48-.05-.01-4.94-1.13-5.32-.25-.04.08-.12.38.27.63c4.85,3.12,12.84,5.7,22.77,5.7.13,0,.27,0,.4,0-.12.61-.24,1.17-.35,1.65-1.38,6.02-3.99,22.18-5.36,27.44-1.36,5.26-6.72,14.23-9.74,14.39-3.01.16-5.41-4.57-5.72-10.98-.32-6.4,3.92-15.96,2.84-21.24-2.63.35-4.61,10.13-6.93,16.12-2.32,6-8.29,18.31-11.8,15.08s1.09-17.07,2.48-24.42c1.38-7.35,1.99-11.62-.07-12.21-2.06-.58-4.07,11.63-5.59,18.21s-11.56,21.16-16.24,18.85c-4.69-2.31-4.43-9.26-4.17-15.85c0,0,5.36-8.8,8.45-15.92.84-1.95,1.7-4.58,2.49-7.58c3.09-.69,5.35-1.6,7.37-2.42l.47-.19c4.31-1.74,8.63-5.88,8.84-7.1.04-.24.16-.41.29-.6.21-.3.57-.81.05-1.46l-.15-.19h-.24c-.93.02-1.59.34-2.74.99-.69.39-1.63.92-3.01,1.58-.57.27-1.19.6-1.87.97-1.93,1.04-4.41,2.37-7.85,3.39c1.43-7.05,2.27-15.08,1.57-21.23-9.21-2.54-11.45,14.95-13.77,21.52-.14.4-.28.84-.41,1.3-10.16-.19-16.65-4.01-19.15-5.5-.27-.16-.5-.3-.69-.41-1.45-.81-4.56-1.81-5.29-1-.18.2-.28.54-.01.92c1.1,1.6,9.27,9.86,21.61,10.41.86.04,1.67.06,2.46.07-.88,4.38-1.6,9.74-2.08,14.47-.59,5.72-2.87,11.13-6.57,15.54-5.75,6.86-12.67,15.52-12.88,16.31-.21.8-.03,1.68.7,1.24.73-.45,12.73-12.13,17.81-18.57c0,0,2.09,10.72,7.08,13.87c5,3.16,12.12-4.99,16.57-11.9-1.26,1.93.8,12.19,4.89,12.11c4.7-.09,9.81-7.2,11.19-11.69c0,0,1.25,2.85,1.61,4.41.35,1.55,3.25,7.89,7.91,7.75c4.66-.13,8.6-4.76,11.49-10.85.09.37,2.28,10.53,8.77,10.33c6.48-.22,9.56-5.76,13.47-13.31-.31,3.02,3.74,11.99,8.67,12.04c4.94.05,8.09-6.85,11.27-11.97c1.27,7.58,6.26,12.61,9.55,12.64c3.28.03,10.02-5.84,13.11-13.94c3.1-8.1,1.43-17.86,1.2-19.03l-.03.06ZM57.8,67.71c.93,2.75.32,9.52-1.3,16.38-1.72.33-3.63.57-5.77.68c1.71-7.65,4.28-15.12,7.07-17.06Zm-7.99,21.6c2.01-.06,3.79-.2,5.38-.41-1.7,5.53-4,10.5-6.58,12.7-.17-2.63.3-7.27,1.2-12.3v.01ZM85.83,78.4l-.03.04c0,0-.02,0-.03,0l.04-.08c0,0,.01.02.02.03v.01Zm-.2.31v0c0,0,0,0,0,0Zm40.49,27.8c-1.79,9.2-10.79,23.68-14.91,21.39-4.12-2.3-2.86-14.41-.9-21.73.97-3.65,2.54-12.79,3.82-21.75c4.34-.44,8.96-1.36,13.79-2.93.81-.26,1.6-.54,2.39-.81-1.03,5.58-2.64,17.79-4.19,25.84v-.01Z" fill="#e9a632" stroke-width="0"/><path d="M154.78,76.82c1.39-.2,3.09,1.47,2.93,2.78s-1.61,3.17-3.45,3.12-2.37-1.66-2.3-2.52.37-3.04,2.82-3.39v.01Z" fill="#e9a632" stroke-width="0"/><path d="M135.33,33.15c-.02-1.08-.05-2.18-.03-3.32v0c.08-5.33-2.74-11.36-3.68-11.9-.23-.13-.42-.05-.48-.01-.16.1-.24.27-.24.53.02.97.09,1.86.16,2.8.2,2.62.42,5.59-.18,11.55-.83,8.25-5.44,17.17-13.61,17.26-.05,0-.1,0-.15,0-3.38,0-10.92-1.33-11.85-13.02-.44-5.68,1.18-10.49,2.37-14c.28-.84.54-1.59.72-2.24.16-.57.37-1.19.58-1.82.78-2.33,1.58-4.74.69-6.02-.37-.52-.98-.8-1.81-.83-2.7-.09-4.32,5.53-5.86,10.95-.63,2.2-1.22,4.28-1.83,5.76-.9,2.17-2.04,3.47-3.37,3.86-1.3.38-2.46-.24-3.04-.64-1.25-.88-.65-4.83-.11-8.32.18-1.17.35-2.27.46-3.29.26-2.36.27-5.44-1.1-6.7-.53-.48-1.19-.65-1.98-.49-2.91.58-2.94,13.83-2.94,14.48c0,1.77,0,3.31-6.14,11.83-2.21,3.06-4.31,4.66-6.25,4.76-2.46.12-4.37-2.03-6.07-3.94l-.03-.03c1.34-1.15,6.54-6.05,7.64-13.04c1.24-7.93,1.71-13.61-3.6-14.48-4.64-.76-8.12,3-10.05,10.87-1.63,6.67-1.52,11.42.4,16.31-5.64,5-11.28,5.44-16.34,1.28c1.15-.93,4.65-4.11,7.74-10.29c3.55-7.1,5.99-22.77-1.8-28.71-6.5-4.95-15.35-.68-17.95.77.08-.38.16-.8.2-1.06.04-.22-.02-.43-.16-.59-.35-.4-1.21-.51-2.96-.41-1.23.07-2.54,3.24-5.62,11.06-1.56,3.96-3.5,8.88-5.81,14.1-2.65,6-5.18,9.12-7.73,9.53-2.43.39-4.69-1.73-6.79-4.08C2.71,27.13,3.27,19.25,4.24,15.3l.13-.53-.54.07c-.08.01-.41.08-1.05.55-1.52,1.11-2.5,2.84-2.7,4.76-.29,2.9-.33,10.27,5.53,15.94c5.9,5.73,9.63,3.56,13.23,1.46.09-.05.17-.1.26-.15C17.64,44.06,5.34,87.72,4.58,89.62c-.52,1.3-1.39,3.06-1.4,3.08l-.2.41.44.12c0,0,.16.04.39.04.71,0,2.29-.33,3.91-2.87c1.64-2.56,8.37-26.56,13.29-44.38.22-.79.4-1.47.56-2.02.82,1.43,3.03,3.92,8.71,4.82c5.3.83,8.27-1.19,10.44-2.66c1.09-.74,1.96-1.33,2.82-1.39c1.1-.07,2.35.54,3.8,1.26c2.11,1.04,4.74,2.32,8.31,2.32c5.17,0,7.37-2.02,9.14-3.65.26-.24.52-.47.77-.69l4.29,2.86c6.49,4.14,11,.01,13.11-2.82.44-.58.93-1.09,1.56-1.74c1.29-1.33,3.04-3.13,5.62-6.95.6.97,1.67,1.63,3.14,1.93c2.51.51,5.89-.13,7.63-1.37.26,2.04,1.1,7.99,2.29,11.07c1.5,3.88,6.81,8.14,12.77,8.24c5.41.06,10.77-2.81,15.82-8.6c3.7-4.26,3.61-8.75,3.51-13.49l.03.01ZM73.8,26.54c-1.24,5.02-2.75,8.26-6.74,9.79-1.2-2.36-1.03-7.25.48-13.86.51-2.22,2.33-4.7,5.13-4.91.07,0,.14,0,.21,0c.53,0,.93.17,1.22.51.92,1.09.82,3.94-.29,8.48l-.01-.01ZM28.26,23.8c.28-1.59,1.48-7.35,4.94-11.91c4.19-5.52,11.56-9.83,16.97-6.92c5.38,2.88,5.21,17.07,2.06,23.36-2.65,5.3-7.06,9.42-8.37,10.57-4.1-9.31-7.32-15-15.61-15.11l.01.01Zm-.63,4.95c.4-.46,1.11-.64,1.93-.64c1.41,0,3.12.56,4.06,1.27c1.45,1.09,6.68,8.88,6.96,11.6.04.36-.03.4-.48.66-.1.06-.21.12-.33.2-3.81,2.21-4.76,2.67-9.03,2.67-5.01,0-7.34-2.06-7.34-6.5s3.19-8.06,4.24-9.26h-.01Z" fill="#e9a632" stroke-width="0"/></g></g><g transform="translate(.000001 0.000001)"><g transform="translate(.000001 0.000001)"><g transform="translate(0 0.000001)"><path id="eSFLDlO6sXK16" d="M1191.16191,285.444846q24.147477,93.001295-6.55,132.45c-30.697477,39.448705-62.8,56.85-106.85,30.05-16.663798-10.138246-25.134808-29.464841-27.85997-53.160591-.078211-.68006-.151689-1.363719-.220493-2.050862-.064082-.639983-.124108-1.28299-.180126-1.928927-.068075-.784968-.13023-1.574265-.18655-2.367725" transform="translate(.000001 0)" fill="none" stroke="#2e3b45" stroke-width="33" stroke-linecap="round" stroke-linejoin="round" stroke-dasharray="1745.754021"/><path id="eSFLDlO6sXK17" d="M1063.442012,349.619847l-15.880102,26.52499l11.85,1.100009l4.030102-27.624999Z" fill="#2e3b45" stroke-width="3.84"/></g><path id="eSFLDlO6sXK19" d="M1076.111908,257.094845c-29.3,88.75-28.549999,117.350001-60.893929,117.350001-2.673044,0-5.090084-.350384-7.275178-1.026653-2.246544-.695289-4.247911-1.73505-6.030248-3.092662-1.713775-1.305387-13.900644-6.893183-13.900644-6.893183" transform="translate(.000001 0)" fill="none" stroke="#2e3b45" stroke-width="33" stroke-linejoin="round" stroke-dasharray="1745.754021"/><path id="eSFLDlO6sXK20" d="M988.011909,263.944846c-2.5,88.75-3.15,89.45-17.75,110.5s-50.3,85.85-97.65,32.4" transform="translate(.000001 0)" fill="none" stroke="#2e3b45" stroke-width="33" stroke-linejoin="round" stroke-dasharray="1745.754021"/></g><g transform="translate(.000001 0.000001)"><path id="eSFLDlO6sXK22" d="M857.914176,382.844846c-.371666-1.153443.318284-3.929789,0-5.092117-13.808082-50.425066,21.841014-108.430235,39.547733-106.257883c21.6,2.65,17.4,85.1-6.65,106.6s-50.3,49.65-79.5,49.65c-15.260632,0-30.835371-4.957423-45.061206-14.708109" transform="translate(.000001 0)" fill="none" stroke="#2e3b45" stroke-width="33" stroke-linecap="round" stroke-linejoin="round" stroke-dasharray="1745.754021"/><path id="eSFLDlO6sXK23" d="M851.624237,399.014884q10.187673-16.570038,16.737673-19.720038t6.55-3.15v21.6l-22.1,4.8-1.187673-3.529962Z" opacity="0" fill="#e9a632" stroke-width="3.84"/><path d="M746.05241,422.763146q18.80193-6.837067,34.185328-26.49363t-12.819498-3.418532l-18.801931,5.127798-2.563899,24.784364Z" transform="translate(1.02209 0.960752)" fill="#e9a632" stroke-width="3.84"/></g><path id="eSFLDlO6sXK25" d="M756.794358,406.844847c-9.287072-8.181468-17.760575-19.788722-24.882449-32.400001-5.376887-9.521289-10.264046-21.734656-20.85-29.9-11.720563-9.040509-29.39163-13.661727-39.799999-16.05" transform="translate(.000001 0)" fill="none" stroke="#2e3b45" stroke-width="33" stroke-linejoin="round" stroke-dasharray="1745.754021"/><g transform="translate(0 0.000001)"><path id="eSFLDlO6sXK27" d="M650.27252,415.981639c1.658857,1.749797,3.405148,3.400341,5.2159,4.940321c1.53773,1.307785,3.121948,2.535834,4.738586,3.677221c12.258919,8.655108,26.382018,12.327032,36.234903,7.995665c25.25-11.1,75.85-25.95,97.25-70.95s39.15-115.168228,0-148.65c-25.960976-22.202285-58.287865,0-67.674194,9.5" transform="translate(.000001 0)" fill="none" stroke="#2e3b45" stroke-width="31" stroke-linecap="round" stroke-linejoin="round" stroke-dasharray="1745.754021"/><path id="eSFLDlO6sXK28" d="M739.294855,426.571137q27.267055-11.414771,45.967055-36.478319-6-4.296651-19.011205-11.511562c-7.438224,8.664179-23.656333,21.990095-33.887653,27.98859l6.931803,20.001291Z" opacity="0" fill="#e9a632" stroke-width="3.84"/><path id="eSFLDlO6sXK29" d="M713.550004,199.484746c0,0-2.111397,23.0101-20.776797,66.910099c29.3154-13.713911,40.788703-9.299999,40.788703-9.299999l-20.011906-57.6101Z" fill="#2e3b45" stroke-width="3.84"/></g><g><path id="eSFLDlO6sXK31" d="M548.961909,663.194846q30.968265-72.1,152.2-460.5c-32.8,71.9-61.299064,187.3-107.249532,181.95s-66.277632-76.902543-39.650468-112.8" transform="translate(.000001 0)" fill="none" stroke="#2e3b45" stroke-width="33" stroke-linecap="round" stroke-linejoin="round" stroke-dasharray="1745.754021"/><path id="eSFLDlO6sXK32" d="M638.11191,427.744846l12.160611-42.35-21.710612,21.45q9.550002,20.9,9.550001,20.9Z" transform="translate(.000001 0)" opacity="0" fill="#e9a632" stroke-width="3.84"/></g></g><g transform="translate(0 0.000001)"><g><path id="eSFLDlO6sXK35" d="M1377.76191,668.365558q2.048139,86.679288-12.6,120.679288c-14.648139,34-38.35,53.768936-52.95,53.768936s-47.75-26.268936-23.970475-93.809962" fill="none" stroke="#2e3b45" stroke-width="33" stroke-linecap="round" stroke-dasharray="646.821565"/><path id="eSFLDlO6sXK36" d="M1303.96191,631.744848q-7.244706,62.410455-34.27633,134.849998-35.17367,74.73654-60.12367,76.19188c-24.95,1.45534-43.021793-46.54188-36.9-86.44188" fill="none" stroke="#2e3b45" stroke-width="33" stroke-linecap="round" stroke-dasharray="646.821565"/><path id="eSFLDlO6sXK37" d="M1115.796477,492.86373c-8.98392,28.685566-22.657612,121.622371-56.384567,278.611358-16.55,77.035349-63.3,76.862986-63.3,76.862986-23.830546,0-33.174596-41.860992-37.2-61.843228" fill="none" stroke="#2e3b45" stroke-width="33" stroke-linecap="round" stroke-dasharray="646.821565"/><path id="eSFLDlO6sXK38" d="M1208.01191,473.794846c-1.538014,71.715175-7.25,187.064613-44.35,297.680242-19.219701,57.304564-44.25,77.035349-66.25,76.426489-22.497005-.622615-32.45986-37.450144-32.45986-70.500884" fill="none" stroke="#2e3b45" stroke-width="33" stroke-linecap="round" stroke-dasharray="646.821565"/><path id="eSFLDlO6sXK39" d="M996.11191,649.644845q-5.5,17.9-48.25,139.400001-27.85,68.21346-50.4,58.85673c-18.48776-7.671174-17.007442-24.602881-16.22687-39.824046" transform="translate(0 0.000001)" fill="none" stroke="#2e3b45" stroke-width="33" stroke-linecap="round" stroke-dasharray="646.821565"/><path id="eSFLDlO6sXK40" d="M903.561909,631.744848q0,41.450002-32.799999,145.655845-41.5,76.511113-69.95,70.962101c-28.45-5.549012-30.990189-26.391758-36.36133-52.291758" transform="translate(.000001 0)" fill="none" stroke="#2e3b45" stroke-width="33" stroke-linecap="round" stroke-dasharray="646.821565"/><path id="eSFLDlO6sXK41" d="M766.451043,682.259029c0,0,17.960867-169.614183,66.910867-162.264183c0,38.1-9.05,111.091423-24.35,148.370711s-91.35,163.008511-164.35,226.286446" transform="translate(0 0.000002)" fill="none" stroke="#2e3b45" stroke-width="33" stroke-linecap="round" stroke-dasharray="646.821565"/><path id="eSFLDlO6sXK42" d="M1321.66367,507.544846q-98.55176,74.8-180.40176,93.5t-198.65-17.05" transform="translate(0 0.000001)" fill="none" stroke="#2e3b45" stroke-width="33" stroke-linecap="round" stroke-dasharray="646.821565"/><path id="eSFLDlO6sXK43" d="M930.800688,565.184675Q865.71191,631.744846,793.71191,631.744846c-72,0-127.968403-12.050003-155.6-61.900001" transform="translate(0 0.000002)" fill="none" stroke="#2e3b45" stroke-width="33" stroke-linecap="round" stroke-dasharray="646.821565"/><ellipse id="eSFLDlO6sXK44" rx="19.00886" ry="19.00886" transform="translate(1307.250295 596.456454)" fill="#2e3b45" stroke-width="0" stroke-linecap="square"/></g><g><g transform="translate(0 0.000001)"><path id="eSFLDlO6sXK47" d="M788.375528,614.066196q-4.653989,21.627361-6.205319,30.296557t-1.095058,6.114064q-7.756649,0-16.965444-2.121044c3.011405-13.961968,6.271753-28.62393,8.731753-34.54393q13.049421.091254,15.534068.254353Z" transform="translate(.000005 0.000003)" opacity="0" fill="#e9a632" stroke-width="3.84"/><path id="eSFLDlO6sXK48" d="M816.698197,613.197041l17.737991-4.888884q-8.304201,35.881835-8.957339,38.239025-.644794,2.327078-18.704738,2.698579q2.727191-8.945186,9.924086-36.04872Z" transform="translate(.000002 0.000003)" opacity="0" fill="#e9a632" stroke-width="3.84"/><path id="eSFLDlO6sXK50" d="M754.661862,694.048211c0,0-.710023,25.087727-6.095531,50.36969c6.974739-8.581487,16.214863-18.848292,16.214863-18.848292c2.783891-4.036641,3.769464-4.507902,11.759855-20.495829c1.40894-2.819141,1.110784-8.817269,2.681605-12.008-5.648982,1.964863-6.140197,9.087493-24.560792.982431Z" transform="translate(.000001 0.000002)" fill="#2e3b45" stroke-width="3.84"/></g><g transform="translate(0 0.000001)"><path id="eSFLDlO6sXK52" d="M1107.892421,589.65161q0,0-4.735997,33.733085-10.489858.552098-27.71866.958822c3.091748-15.237899,5.08466-26.2659,6.53742-33.500644c6.735593-.11042,25.917237-1.191263,25.917237-1.191263Z" opacity="0" fill="#e9a632" stroke-width="3.84"/><path id="eSFLDlO6sXK53" d="M1190.234135,565.453883l-7.741242,48.049093l30.734172-10.235094q1.067758-13.48044,2.492014-48.606235-7.474303,3.737151-25.484944,10.792236Z" transform="translate(.000001 0.000001)" opacity="0" fill="#e9a632" stroke-width="3.84"/></g><g transform="translate(.000001 0)"><path id="eSFLDlO6sXK55" d="M867.684906,799.519231q22.972457-36.288461,28.656881-56.420794-7.816082,54.475726-11.468231,57.138365c-7.527786,2.651806-8.801731,3.435772-18.111329,4.317734-1.199031-.67527.195992-3.23386.922679-5.035305Z" transform="translate(0 0.000002)" fill="#2e3b45" stroke-width="3.84"/><path id="eSFLDlO6sXK56" d="M749.698128,789.105177c.574595-3.158263,23.330972-33.070926,23.330972-33.070926q.695279,28.042905.540262,28.899255c0,0-12.694012,3.17721-23.871234,4.171671Z" fill="#2e3b45" stroke-width="3.84"/><path id="eSFLDlO6sXK57" d="M948.405737,800.84329c10.92066-11.134499,4.258064-3.866213,22.339938-25.386293q.492635-10.98531-1.353936-17.601164l-17.601164,11.169968-9.139066,9.139066-3.046356,18.27813l6.092709,12.185421l2.707875-7.785128Z" transform="translate(.000006 0.000002)" opacity="0" fill="#e9a632" stroke-width="3.84"/><path id="eSFLDlO6sXK58" d="M1050.82747,812.980578q3.9586-8.097136,26.630578-46.24364q0-5.937899-1.43949-10.616244l-18.533443,3.778664-7.737263,8.81688-4.678345,12.235671q1.799363,40.125805,5.757963,32.028669Z" opacity="0" fill="#e9a632" stroke-width="3.84"/><path id="eSFLDlO6sXK59" d="M1050.82747,812.980578q3.9586-8.097136,26.856656-43.767386c3.565807-12.883097,1.178746-16.624865-2.742424-18.021648l-8.227274-1.5671-9.794374-.979437-5.876625,7.639611c-1.5671,4.897187-3.757874,8.346489-4.113637,11.557361-4.215176,38.043285.764198,50.804118,3.897678,45.138599Z" transform="translate(108.728366-10.125653)" opacity="0" fill="#e9a632" stroke-width="3.84"/><path id="eSFLDlO6sXK60" d="M1262.504188,796.573676c.281109-.281108,32.60858-45.539567,34.576339-57.065014q1.967759-11.525447-12.649881-7.027712l-13.493205,8.152145q-9.276581,29.797495-8.995472,30.078604c.281109.281109.281109,26.143086.562219,25.861977Z" transform="translate(.000002 0)" opacity="0" fill="#e9a632" stroke-width="3.84"/></g></g></g></g></svg>
