<svg id="ehVcwzWJ79a1" xmlns="http://www.w3.org/2000/svg" xmlns:xlink="http://www.w3.org/1999/xlink" viewBox="-24 50 650 700" shape-rendering="geometricPrecision" text-rendering="geometricPrecision" project-id="f6aef2ada5564abdbcf3c590ce09bdb5" export-id="0d761b2d9ce24d0fbbe738e17c6c6a11" cached="false">
<style><![CDATA[
#ehVcwzWJ79a5_to {animation: ehVcwzWJ79a5_to__to 14000ms linear infinite normal forwards}@keyframes ehVcwzWJ79a5_to__to { 0% {offset-distance: 0%} 21.428571% {offset-distance: 25.885777%} 42.857143% {offset-distance: 41.721593%} 78.571429% {offset-distance: 71.342936%} 100% {offset-distance: 100%}} #ehVcwzWJ79a6_to {animation: ehVcwzWJ79a6_to__to 14000ms linear infinite normal forwards}@keyframes ehVcwzWJ79a6_to__to { 0% {offset-distance: 0%} 25.714286% {offset-distance: 34.227495%} 64.285714% {offset-distance: 49.130584%} 100% {offset-distance: 100%}} #ehVcwzWJ79a7_to {animation: ehVcwzWJ79a7_to__to 14000ms linear infinite normal forwards}@keyframes ehVcwzWJ79a7_to__to { 0% {offset-distance: 0%} 18.571429% {offset-distance: 20.626225%} 47.142857% {offset-distance: 44.48222%} 74.285714% {offset-distance: 72.375306%} 95.428571% {offset-distance: 90.972271%} 100% {offset-distance: 100%}} #ehVcwzWJ79a8_to {animation: ehVcwzWJ79a8_to__to 14000ms linear infinite normal forwards}@keyframes ehVcwzWJ79a8_to__to { 0% {offset-distance: 0%} 25.714286% {offset-distance: 19.208494%} 54.285714% {offset-distance: 38.155951%} 82.857143% {offset-distance: 70.484299%} 100% {offset-distance: 100%}} #ehVcwzWJ79a10_to {animation: ehVcwzWJ79a10_to__to 14000ms linear infinite normal forwards}@keyframes ehVcwzWJ79a10_to__to { 0% {offset-distance: 0%} 20% {offset-distance: 22.591356%} 64.285714% {offset-distance: 51.443137%} 100% {offset-distance: 100%}} #ehVcwzWJ79a11_to {animation: ehVcwzWJ79a11_to__to 14000ms linear infinite normal forwards}@keyframes ehVcwzWJ79a11_to__to { 0% {transform: translate(545.358004px,490.723973px);animation-timing-function: cubic-bezier(0.42,0,0.58,1)} 20.642857% {transform: translate(413.61286px,660.110588px);animation-timing-function: cubic-bezier(0.42,0,0.58,1)} 47.214286% {transform: translate(240.043864px,916.102914px);animation-timing-function: cubic-bezier(0.42,0,0.58,1)} 73.642857% {transform: translate(104.116334px,587.785649px);animation-timing-function: cubic-bezier(0.42,0,0.58,1)} 100% {transform: translate(545.358004px,490.723973px)}} #ehVcwzWJ79a12_to {animation: ehVcwzWJ79a12_to__to 14000ms linear infinite normal forwards}@keyframes ehVcwzWJ79a12_to__to { 0% {transform: translate(331.01075px,1019.616956px);animation-timing-function: cubic-bezier(0.25,0.1,0.25,1)} 37.142857% {transform: translate(641.150748px,912.966125px);animation-timing-function: cubic-bezier(0.25,0.1,0.25,1)} 100% {transform: translate(331.01075px,1019.616956px)}}
]]></style>
<defs><radialGradient id="ehVcwzWJ79a5-fill" cx="0" cy="0" r="0.500704" spreadMethod="pad" gradientUnits="objectBoundingBox" gradientTransform="translate(0.5 0.46777)"><stop id="ehVcwzWJ79a5-fill-0" offset="0%" stop-color="#fb8935"/><stop id="ehVcwzWJ79a5-fill-1" offset="90%" stop-color="rgba(251,137,53,0)"/></radialGradient><radialGradient id="ehVcwzWJ79a6-fill" cx="0" cy="0" r="0.500704" spreadMethod="pad" gradientUnits="objectBoundingBox" gradientTransform="translate(0.5 0.46777)"><stop id="ehVcwzWJ79a6-fill-0" offset="0%" stop-color="#fb8935"/><stop id="ehVcwzWJ79a6-fill-1" offset="90%" stop-color="rgba(251,137,53,0)"/></radialGradient><radialGradient id="ehVcwzWJ79a7-fill" cx="0" cy="0" r="0.500704" spreadMethod="pad" gradientUnits="objectBoundingBox" gradientTransform="translate(0.5 0.46777)"><stop id="ehVcwzWJ79a7-fill-0" offset="0%" stop-color="#fb8935"/><stop id="ehVcwzWJ79a7-fill-1" offset="90%" stop-color="rgba(251,137,53,0)"/></radialGradient><radialGradient id="ehVcwzWJ79a8-fill" cx="0" cy="0" r="0.500704" spreadMethod="pad" gradientUnits="objectBoundingBox" gradientTransform="translate(0.5 0.46777)"><stop id="ehVcwzWJ79a8-fill-0" offset="0%" stop-color="#fb8935"/><stop id="ehVcwzWJ79a8-fill-1" offset="90%" stop-color="rgba(251,137,53,0)"/></radialGradient><radialGradient id="ehVcwzWJ79a10-fill" cx="0" cy="0" r="0.500704" spreadMethod="pad" gradientUnits="objectBoundingBox" gradientTransform="translate(0.5 0.46777)"><stop id="ehVcwzWJ79a10-fill-0" offset="0%" stop-color="#6f2712"/><stop id="ehVcwzWJ79a10-fill-1" offset="90%" stop-color="rgba(111,39,18,0)"/></radialGradient><radialGradient id="ehVcwzWJ79a11-fill" cx="0" cy="0" r="0.500704" spreadMethod="pad" gradientUnits="objectBoundingBox" gradientTransform="translate(0.5 0.46777)"><stop id="ehVcwzWJ79a11-fill-0" offset="0%" stop-color="#6f2712"/><stop id="ehVcwzWJ79a11-fill-1" offset="90%" stop-color="rgba(111,39,18,0)"/></radialGradient><radialGradient id="ehVcwzWJ79a12-fill" cx="0" cy="0" r="0.500704" spreadMethod="pad" gradientUnits="objectBoundingBox" gradientTransform="translate(0.5 0.46777)"><stop id="ehVcwzWJ79a12-fill-0" offset="0%" stop-color="#6f2712"/><stop id="ehVcwzWJ79a12-fill-1" offset="90%" stop-color="rgba(111,39,18,0)"/></radialGradient></defs><path d="M448.48,1194.69c-9.96,0-19.96-.9-30.02-2.85-6.74-1.3-14.32-3.4-19.43-9.06-8.07-8.93-7.51-22.65,1.66-40.78c7.24-14.32,15.33-28.22,24.17-41.61-19.42,1.14-37.97-.39-55.89-4.59-8.8-2.06-18.81-5.13-26.29-12.28-18.72-17.88-10.95-49.65,5.06-73.21c9.29-13.67,20.29-26.28,32.7-37.59-9.72-1.58-20.03-4.52-25.34-13.13-1.06-1.72-1.83-3.54-2.38-5.42-29.81,11.26-63.75,14.44-97.09,8.65-45.25-7.86-85.99-31.66-111.79-65.3-15.25-19.89-26.45-48.9-12.13-70.67c8.44-12.83,23.69-19.17,36.04-23.25c64.56-21.36,134.09-16.47,201.34-11.75c18,1.27,36.62,2.57,54.77,3.34c1.33.06,2.68.11,4.03.14c3.47-3.66,7.06-7.32,10.76-11c7.39-7.33,14.46-13.91,21.21-19.81-.35-3.6-.42-7.35-.19-11.22.54-9.21,2.71-18.97,6.3-28.52-2.91-3.42-5.91-6.67-8.85-9.76-29.5-30.91-63.56-56.45-101.38-76.05-9,14.1-24.12,22.83-41.44,23.4-19.45.63-36.83-9.22-46.19-25.98-5.28,5.89-9.67,12.96-14.2,20.28-3.83,6.18-7.79,12.58-12.4,18.28-18.37,22.75-49.18,36.42-84.53,37.51-32.15.98-64.29-8.03-91.9-16.56-25.44-7.86-50.37-18.26-60.44-40.96-9.94-22.4-.37-48.35,11.9-65.17c5.47-7.5,11.91-14.2,19.07-20.03c5.13-31.22,16.32-60.05,40.59-79.82c21.79-17.75,52.8-25.88,87.31-22.87l.91.08c45.54,4.2,81.87,40.77,86.38,86.95c2.44,24.93,8.86,49.21,19.11,72.23c2.48-2.07,5.16-3.92,8.11-5.49c17.18-9.17,39.62-6.91,68.62,6.91c2.24,1.07,4.47,2.16,6.69,3.26.56-1.16,1.08-2.35,1.56-3.57l.31-.8c.55-1.39,1.11-2.78,1.68-4.16-.78-.23-1.56-.46-2.34-.71-11.48-3.69-20.68-9.71-26.61-17.39-13.94-18.07-9.35-43.65-1.18-60.07c19.58-39.34,60.62-58.41,100.31-76.86c21.46-9.97,43.65-20.29,62.41-33.71c9.07-6.49,19.35-15.87,23.7-27.2-3.74,3.1-7.68,5.94-11.79,8.49-20.34,12.63-44.81,18.84-75.18,18.84-14.77,0-30.93-1.47-48.69-4.38-14.29-2.34-30.62-5.65-43.64-15.2-12.69-9.32-20.6-24.1-22.28-41.64-1.91-19.92,4.6-40.08,17.41-53.92c22.68-24.52,62.28-32.74,98.52-20.47c29.3,9.92,56.31,31.71,80.28,64.77c6.07,8.37,11.79,17.48,13.18,27.72c33.23-37.35,38.53-95.76,31.54-139.75-1.65-10.39-4.05-21.12-10.38-29.16-10.01-12.73-33.31-20.28-62.81-8.46-9.01,3.61-17.8,8.41-26.29,13.06-12.34,6.75-25.1,13.72-39.07,17.39-16.91,4.44-35.75,4.04-54.77-1.13-5.49,7.2-12.38,13.13-20.07,16.91-25.43,12.51-58.59,10.48-98.54-6.02-8.38-3.46-17.76-7.85-23.15-16.27-10.51-16.44,0-38.13,14.19-51.32c3.7-3.44,7.7-6.7,11.57-9.85c10.23-8.33,19.89-16.2,24.92-27.38c8-17.81.82-42.09-16.7-56.49-6.34-5.21-13.79-9.33-22.29-12.35.14.49.28.98.41,1.47c6.44,23.45,6.56,42.29.37,57.59-11.4,28.18-45.1,45.66-90.15,46.77-9.1.23-18.63-.17-26.77-4.52-8.4-4.49-13.33-12.08-15.98-17.65-5.51-11.56-6.38-25.48-2.43-39.2C98.32,111.4,106,99.45,116.21,90.72c22.61-19.32,52.76-23.16,74.05-22.97c10.76.09,20.67,1.19,29.69,3.27-4.7-13-10.9-24.7-18.23-34.31-11.08-14.51-24.25-23.78-39.16-27.55-24.39-6.16-24.99-12.49,1.47-5.82c16.25,4.1,30.53,14.1,42.46,29.72c8.43,11.05,15.43,24.68,20.46,39.81c10.9,3.32,20.35,8.25,28.26,14.75c9.12,7.5,16.11,17.83,19.66,29.1c3.78,11.97,3.31,24.22-1.3,34.48-5.61,12.49-16.28,21.17-26.6,29.58-3.8,3.09-7.72,6.29-11.28,9.59-12.44,11.56-21.88,30.16-13.22,43.7c4.44,6.95,12.85,10.85,20.38,13.96c38.29,15.81,69.79,17.89,93.61,6.18c6.24-3.07,11.89-7.72,16.56-13.37-14.36-4.71-32.35-13.95-39.68-31.58-3.95-9.5-3-21.62,2.4-30.89c4.43-7.59,11.16-12.29,18.94-13.23c7.81-.94,16.34,1.91,23.41,7.82c10.86,9.08,15.78,22.85,13.87,38.77-1.09,9.05-4.35,17.91-9.17,25.69c17.31,4.38,34.34,4.59,49.63.58c13.26-3.48,25.69-10.28,37.72-16.85c8.65-4.73,17.6-9.62,26.94-13.36c23.33-9.35,53.95-9.78,69.76,10.33c7.17,9.11,9.8,20.73,11.58,31.92c5.08,31.91,3.27,64.85-5.07,92.76-6.79,22.71-17.78,41.85-32.28,56.48-1.88,17.05-15.98,30.63-28.14,39.33-19.22,13.75-41.66,24.18-63.37,34.28-40.54,18.84-78.82,36.64-97.47,74.09-7.4,14.87-11.69,37.86.56,53.73c5.18,6.72,13.38,12.02,23.7,15.34.96.31,1.93.6,2.9.87c29.81-66.66,90.8-118.85,161.48-137.44c18.36-4.83,31.77-2.47,38.76,6.81c4.88,6.48,5.55,14.8,1.96,24.06-2.66,6.86-7.77,14.39-14.37,21.22-24.91,25.76-53.09,48.21-83.75,66.74-38.17,23.07-71.95,31.66-100.58,25.63-.68,1.62-1.35,3.25-1.99,4.89l-.3.77c-.55,1.41-1.15,2.78-1.8,4.12c38.34,19.89,72.86,45.79,102.78,77.14c2.35,2.46,4.72,5.02,7.06,7.68c1.51-3.39,3.19-6.73,5.04-9.99c1.38-2.43,2.81-4.82,4.31-7.17-3.75-4.04-7.11-8.25-10-12.58-12.15-18.16-15.4-37.26-9.4-55.23c1.67-5,4.85-9.21,8.97-11.86c4.55-2.93,9.72-3.72,14.95-2.3c9.66,2.63,17.24,11.77,21.11,19.45s6.51,15.68,8.16,23.88c18.28-15.46,39.77-27.11,62.93-33.74c19.58-5.61,46.04-5.38,56.14,13.72c5.94,11.22,3.4,24.46.56,35.98-2.54,10.28-5.62,21.42-10.87,31.43c19.55,4.68,37.12,13.82,50.57,27c18.16,17.79,27.59,48.58,11.14,67.31-5.21,5.93-12.22,9.71-19.28,12.45c14.27,1.43,23.51,6.73,26.78,15.39c2.22,5.89,1.05,12.26-.02,16.53-5.9,23.46-22.85,44.2-53.36,65.24-5.57,3.84-11.25,7.52-17.03,11.02c4.36,1.96,10.36,5.79,10.22,12.96c25.21-7.19,47.88-7.82,68.55-2l2.88.81-.8,2.88c-11.89,42.84-53.04,69.68-90.67,91.47-34.08,19.73-74.54,41.75-116.26,55.45-21.25,6.98-41.4,11.36-60.67,13.16-9.74,14.4-18.58,29.4-26.42,44.9-5.46,10.78-10.33,25.45-2.56,34.05c3.93,4.35,10.35,6.08,16.12,7.19c62.96,12.19,124.74-18.41,187.77-53.62c18.71-10.46,42.5-24.68,60.52-41.99c19.39-18.64,29.47-37.94,30.82-59.01l5.99.38c-3.1,48.53-49.46,80.75-94.4,105.86-54.12,30.24-107.4,57.12-161.81,57.12v.01ZM388.2,973.84c-13.6,11.84-25.56,25.22-35.51,39.85-14.59,21.47-22.06,50.04-5.88,65.5c6.44,6.15,15.5,8.9,23.52,10.78c18.75,4.39,38.24,5.77,58.77,4.12c24.84-36.19,55.3-68.57,89.89-95.6-22.44,5.49-45.55,8.34-68.72,8.34h-.42c-8.84-.01-21.24-1.12-26.89-10.55-3.63-6.07-2.87-13.49-1.98-18.54.07-.38.14-.77.21-1.15-11.03-.38-22.04-1.29-33-2.73l.01-.02Zm146.47,20.33c-37.71,27.37-70.89,61.03-97.72,99.13c17.3-2.01,35.35-6.13,54.31-12.35c41.2-13.53,81.32-35.36,115.13-54.94c35.73-20.69,74.69-45.96,87.03-84.97-19.76-4.9-41.56-3.65-65.91,3.83-1.03,1.79-2.46,3.39-4.2,4.69-26.71,19.87-56.85,34.93-88.63,44.61h-.01ZM427.28,976.72c-.14.67-.27,1.35-.39,2.03-.72,4.11-1.39,10.07,1.22,14.42c3.1,5.19,10.01,7.61,21.75,7.63h.42c27.69,0,55.27-4.14,81.69-12.08c15.93-11.5,32.64-21.9,50.01-31.05c14.43-7.6,28.12-13.5,41.14-17.7.05-.18.09-.35.13-.53.92-4.35-1.78-7.25-9.3-9.99-.43-.16-.87-.32-1.31-.47-55.97,32.27-120.76,48.86-185.36,47.75v-.01Zm184.53-26.3c-8.7,3.45-17.7,7.64-27.04,12.56-10.74,5.66-21.23,11.8-31.43,18.39c20.59-8,40.26-18.38,58.46-30.95h.01ZM428.74,970.75c61.27.87,122.68-14.55,176.25-44.33-42.56-13.29-90.33-12.67-135.61,1.93-8.2,2.64-16.19,5.7-23.94,9.16-7.26,10.12-13.29,21.22-16.7,33.24Zm-34.25-2.18c9.32,1.07,18.69,1.75,28.05,2.04c2.47-9.41,6.53-18.69,12.27-28.05-14.47,7.33-28,16.06-40.32,26.01Zm-36.18-16.62c.42,1.59,1.03,3.1,1.89,4.5c4.31,6.99,13.9,9.28,22.7,10.6c1.14.17,2.29.34,3.44.5c16.37-13.9,34.94-25.66,55.12-34.81c7.74-10.54,17.65-21.28,31.01-33.63c28.65-26.49,57.9-46.99,86.94-60.95c6.63-3.19,13.26-6.03,19.85-8.53-25.89-.86-51.62-6.03-75.94-15.45-4.99-1.93-10.31-4.19-15.45-7.09-5.29,14.35-13.35,28.11-21.53,40.72-20.65,31.83-46.71,67.56-83.44,91.24-7.73,4.98-15.96,9.29-24.58,12.9h-.01ZM281.87,793.78c-38.24,0-76.13,3.58-112.24,15.52-11.42,3.78-25.49,9.57-32.91,20.85-12.59,19.14-2.12,45.47,11.88,63.72c24.89,32.46,64.27,55.43,108.05,63.04c32.68,5.68,65.94,2.46,95-8.75-.27-3.46-.05-6.95.28-10.22c4.6-45.19,27.72-90.11,70.54-136.79-17.88-.78-36.14-2.06-53.81-3.31-28.71-2.02-57.86-4.07-86.79-4.07v.01Zm148.54,7.63c-44.17,47.07-67.93,92.07-72.51,137.14-.24,2.4-.42,4.84-.37,7.21c7.73-3.34,15.13-7.27,22.1-11.76c35.77-23.07,61.35-58.17,81.66-89.46c8.2-12.63,16.27-26.42,21.35-40.69-3.34-2.28-6.51-4.9-9.35-7.96-.29-.32-.58-.64-.87-.96-12.55,5.63-27.55,6.74-42.01,6.48Zm168.85,28.02c-34.77,9.79-76.46,31.29-122.73,74.07-7.74,7.15-16.01,15.29-23.59,24.36c4.79-1.89,9.66-3.63,14.61-5.22c48.31-15.58,99.44-15.63,144.47-.24c7.09-4.17,14.04-8.59,20.82-13.27c29.24-20.17,45.43-39.8,50.95-61.77.88-3.49,1.86-8.64.23-12.95-3.2-8.48-14.59-11.04-23.58-11.7-4.72-.35-9.77-.5-15.12-.38-15.1,3.92-30.55,6.28-46.05,7.1h-.01ZM489.82,801.29c5.14,3.01,10.57,5.32,15.65,7.29c29.45,11.41,61.04,16.41,92.37,14.92c15.78-4.42,31.38-6.82,46.73-7.17c2.8-.74,5.59-1.53,8.37-2.38c9.14-2.79,18.46-6.36,24.68-13.44c14.13-16.09,5.38-43.19-10.83-59.06-13.08-12.81-30.32-21.58-49.51-25.88-2.44,3.81-5.28,7.39-8.62,10.6-23.97,23.02-62.09,17.27-90,4.45-3.69,1.89-7.56,4.03-11.63,6.45-1.04,4.32-2.14,8.58-3.27,12.76-2.49,9.21-5.17,18.14-9.77,25.92-.01,8.62-1.57,17.18-4.17,25.55v-.01Zm-11.9-9.23c2.04,2.16,4.28,4.08,6.65,5.81c1.29-4.42,2.26-8.88,2.83-13.36-2.86,3-6.05,5.49-9.48,7.55Zm-16.99-20.47c-5.78,5.16-11.8,10.81-18.07,17.02-2.3,2.28-4.55,4.55-6.75,6.82c11.39-.13,22.79-1.39,32.52-5.42-3.66-5.42-6.24-11.62-7.7-18.43v.01Zm5.31-4.65c1.09,7.41,3.59,14.37,7.83,20.41c3.49-2,6.68-4.47,9.47-7.5c1.65-1.79,3.11-3.72,4.41-5.77-.09-3.9-.53-7.8-1.38-11.7-.71-3.27-1.7-6.44-2.9-9.52-5.54,4.17-11.35,8.84-17.44,14.08h.01Zm22.42-17.76c1.59,3.82,2.88,7.79,3.78,11.92.21.96.4,1.92.56,2.87c1.96-4.97,3.49-10.28,4.96-15.71.59-2.2,1.18-4.41,1.75-6.65-3.55,2.3-7.23,4.81-11.05,7.56v.01ZM470.4,730.27c-3.23,9.62-5.04,19.7-4.78,29.32c5.41-4.55,10.59-8.65,15.57-12.37-2.96-6.02-6.7-11.67-10.79-16.95Zm2.45-6.57c4.97,6.11,9.61,12.74,13.25,19.93c5.49-3.92,10.71-7.37,15.66-10.4.81-3.47,1.56-6.97,2.25-10.49-8.04-4.98-15.41-10.7-21.85-16.93-1.17,1.88-2.31,3.79-3.4,5.72-2.19,3.86-4.18,7.94-5.91,12.16v.01Zm52.89,3.46c25.56,10.57,58.21,14.41,78.76-5.33c2.39-2.29,4.5-4.82,6.39-7.52-19.79-3.34-41.33-2.08-62.34,4.23-6.44,1.93-14.02,4.57-22.81,8.61v.01Zm-16.24-1.2c-.21,1.04-.43,2.08-.65,3.11c1.07-.6,2.12-1.18,3.16-1.75-.84-.45-1.68-.9-2.51-1.37v.01Zm1.19-6.22c1.56.9,3.13,1.77,4.72,2.6c1.03.54,2.09,1.07,3.16,1.59c11.09-5.48,20.48-8.8,28.25-11.13c22.74-6.83,46.12-7.98,67.47-3.96c5.45-9.82,8.59-21.14,11.16-31.56c2.58-10.45,4.91-22.38-.04-31.74-5.27-9.96-21.31-18.75-49.19-10.76-23.5,6.73-45.21,18.82-63.42,34.9c2.22,16.42.86,33.45-2.12,50.06h.01Zm-25.16-19.08c5.81,5.72,12.47,11.05,19.66,15.71c2.35-13.88,3.47-27.98,2.16-41.64-8.13,7.85-15.46,16.54-21.82,25.92v.01ZM78.54,693.74c24.32,7.15,51.41,13.6,78.25,12.75c33.6-1.04,62.78-13.9,80.04-35.29c4.37-5.42,8.23-11.65,11.97-17.67c4.95-7.99,10-16.14,16.47-22.86-11.01-24.17-17.89-49.71-20.45-75.97-4.23-43.32-38.28-77.62-80.96-81.56l-.85-.08c-32.97-2.87-62.45,4.78-83.03,21.54-21.26,17.31-31.96,42.33-37.32,69.87c30.72-21.29,71.96-27.94,107.15-14.94c16.2,5.98,27.88,14.7,34.72,25.92c13.59,22.27,5.44,50.65-5.66,68.2-10.14,16.02-24.83,29.25-42.47,38.26s-36.96,13.14-55.89,11.97c-.63-.04-1.28-.09-1.97-.15v.01Zm398.81-68.99c-2.33,0-4.57.68-6.67,2.04-2.97,1.91-5.29,5.01-6.53,8.71-3.76,11.26-5.3,29.07,8.69,50c2.44,3.65,5.28,7.25,8.45,10.74c7.26-10.54,15.71-20.21,25.11-28.84-1.48-8.92-4.11-17.58-8.26-25.8-4.14-8.2-10.94-14.62-17.33-16.36-1.17-.32-2.33-.48-3.46-.48v-.01ZM41.17,572.99c-3.17,20.53-3.77,42.13-3.84,62.75-.05,13.8.44,25.99,6.89,35.41c9,13.15,26.83,16.14,36.65,16.75c36.18,2.26,73.53-16.82,92.92-47.45c10.19-16.09,17.77-41.94,5.61-61.86-6.12-10.03-16.78-17.91-31.68-23.42-35.3-13.04-77.02-5.23-106.56,17.82h.01Zm-6.89,5.86c-4.74,4.4-9.08,9.24-12.91,14.49-11.28,15.47-20.16,39.14-11.26,59.2c6.74,15.19,21.41,24.46,38.35,31.27-3.46-2.46-6.61-5.51-9.19-9.28-8.03-11.73-7.98-26.75-7.94-38.82.06-18.64.55-38.06,2.95-56.86Zm238.25,53.13c8.05,15.69,23.83,25,41.56,24.41c15.08-.5,28.27-8,36.26-20.14-2.09-1.04-4.19-2.07-6.3-3.07-27.16-12.94-47.83-15.24-63.21-7.03-3.04,1.62-5.78,3.59-8.3,5.83h-.01Zm92.69-13.63c26.85,5.21,58.75-3.22,95.02-25.14c30.22-18.26,57.99-40.39,82.54-65.78c10.92-11.29,19.79-27.07,11.93-37.5-6.83-9.07-21.41-7.52-32.44-4.62-68.58,18.04-127.81,68.51-157.06,133.04h.01Zm28.27-319.71c-23.47,0-45.55,8.48-60.09,24.19-11.67,12.61-17.59,31.03-15.84,49.28c1.51,15.81,8.56,29.08,19.86,37.37c11.95,8.77,27.46,11.89,41.06,14.12c52.76,8.66,90.8,4.33,119.73-13.63c6.29-3.9,11.96-8.36,17.07-13.27.04-.85.03-1.71,0-2.57-.47-9.93-6.2-19.11-12.33-27.55-23.23-32.03-49.25-53.1-77.34-62.61-10.6-3.59-21.5-5.33-32.11-5.33h-.01ZM337.7,171c-.77,0-1.53.04-2.28.14-5.88.71-11.02,4.37-14.48,10.3-4.5,7.71-5.3,17.74-2.05,25.56c6.69,16.08,24.01,24.44,37.36,28.61.18.06.36.11.54.17c4.87-7.38,8.17-15.95,9.22-24.72c1.66-13.83-2.51-25.71-11.76-33.45-5.1-4.27-11.02-6.6-16.56-6.6l.01-.01ZM188.84,73.77c-20.18,0-48,3.83-68.72,21.54-19.85,16.97-27.46,45.21-17.69,65.71c2.27,4.76,6.43,11.21,13.4,14.94c7.25,3.88,16.08,4,23.79,3.81c15.96-.39,69.22-4.65,84.73-43.02c5.68-14.03,5.48-31.62-.6-53.75-.48-1.75-.99-3.49-1.52-5.21-9.53-2.57-20.22-3.92-32.01-4.02-.46,0-.92,0-1.38,0Z" fill="#f15624" stroke="#393939" stroke-miterlimit="10"/><g clip-path="url(#ehVcwzWJ79a13)"><g><g id="ehVcwzWJ79a5_to" style="offset-path:path('M322.333403,311.214337C225.238416,328.996603,112.45642,421.960286,121.378734,520.455799L165.588273,707.283894C285.208812,735.091687,439.988217,650.302474,480.486314,576.766943C534.952282,471.43079,433.453074,350.22752,322.333403,311.214337');offset-rotate:0deg"><ellipse rx="97.43975" ry="97.43975" transform="scale(1.386738,1.386738) translate(0,0)" fill="url(#ehVcwzWJ79a5-fill)" stroke-width="0"/></g><g id="ehVcwzWJ79a6_to" style="offset-path:path('M135.630869,861.997634C200.874331,1124.746897,316.443902,1074.097577,450.527598,1082.425344C526.401039,1080.245651,598.018758,1030.347409,599.158377,985.534044C600.7764,815.077667,315.152845,577.668902,135.630869,861.997634');offset-rotate:0deg"><ellipse rx="97.43975" ry="97.43975" transform="scale(1.386738,1.386738) translate(0,0)" fill="url(#ehVcwzWJ79a6-fill)" stroke-width="0"/></g><g id="ehVcwzWJ79a7_to" style="offset-path:path('M520.859486,1107.79352C550.639419,1043.073925,596.273262,947.500031,584.077387,927.865646C611.350829,862.826052,545.91799,783.423321,473.680674,758.825702C415.598333,794.565009,351.819962,905.249115,334.879628,974.571762L436.735788,1115.718603L520.859486,1107.79352');offset-rotate:0deg"><ellipse rx="97.43975" ry="97.43975" transform="scale(1.386738,1.386738) translate(0,0)" fill="url(#ehVcwzWJ79a7-fill)" stroke-width="0"/></g><g id="ehVcwzWJ79a8_to" style="offset-path:path('M187.211136,0.868548L289.332362,122.441436C317.368353,161.684225,290.022336,229.481601,267.075171,270.199253C181.489259,268.277006,34.819905,261.014717,44.526648,177.242752C52.39652,116.632145,79.470511,24.018218,187.211136,0.868548');offset-rotate:0deg"><ellipse rx="97.43975" ry="97.43975" transform="scale(1.386738,1.386738) translate(0,0)" fill="url(#ehVcwzWJ79a8-fill)" stroke-width="0"/></g></g><g><g id="ehVcwzWJ79a10_to" style="offset-path:path('M151.379848,291.119243L304.03692,416.59081C446.049202,433.721994,484.912357,375.178981,533.209243,338.768563C453.379813,228.23652,258.897382,202.507814,151.379848,291.119243');offset-rotate:0deg"><ellipse rx="97.43975" ry="97.43975" transform="scale(1.386738,1.386738) translate(0,0)" fill="url(#ehVcwzWJ79a10-fill)" stroke-width="0"/></g><g id="ehVcwzWJ79a11_to" transform="translate(545.358004,490.723973)"><ellipse rx="97.43975" ry="97.43975" transform="scale(1.386738,1.386738) translate(0,0)" fill="url(#ehVcwzWJ79a11-fill)" stroke-width="0"/></g><g id="ehVcwzWJ79a12_to" transform="translate(331.01075,1019.616956)"><ellipse rx="97.43975" ry="97.43975" transform="scale(1.386738,1.386738) translate(0,0)" fill="url(#ehVcwzWJ79a12-fill)" stroke-width="0"/></g></g><clipPath id="ehVcwzWJ79a13"><path d="M448.48,1194.69c-9.96,0-19.96-.9-30.02-2.85-6.74-1.3-14.32-3.4-19.43-9.06-8.07-8.93-7.51-22.65,1.66-40.78c7.24-14.32,15.33-28.22,24.17-41.61-19.42,1.14-37.97-.39-55.89-4.59-8.8-2.06-18.81-5.13-26.29-12.28-18.72-17.88-10.95-49.65,5.06-73.21c9.29-13.67,20.29-26.28,32.7-37.59-9.72-1.58-20.03-4.52-25.34-13.13-1.06-1.72-1.83-3.54-2.38-5.42-29.81,11.26-63.75,14.44-97.09,8.65-45.25-7.86-85.99-31.66-111.79-65.3-15.25-19.89-26.45-48.9-12.13-70.67c8.44-12.83,23.69-19.17,36.04-23.25c64.56-21.36,134.09-16.47,201.34-11.75c18,1.27,36.62,2.57,54.77,3.34c1.33.06,2.68.11,4.03.14c3.47-3.66,7.06-7.32,10.76-11c7.39-7.33,14.46-13.91,21.21-19.81-.35-3.6-.42-7.35-.19-11.22.54-9.21,2.71-18.97,6.3-28.52-2.91-3.42-5.91-6.67-8.85-9.76-29.5-30.91-63.56-56.45-101.38-76.05-9,14.1-24.12,22.83-41.44,23.4-19.45.63-36.83-9.22-46.19-25.98-5.28,5.89-9.67,12.96-14.2,20.28-3.83,6.18-7.79,12.58-12.4,18.28-18.37,22.75-49.18,36.42-84.53,37.51-32.15.98-64.29-8.03-91.9-16.56-25.44-7.86-50.37-18.26-60.44-40.96-9.94-22.4-.37-48.35,11.9-65.17c5.47-7.5,11.91-14.2,19.07-20.03c5.13-31.22,16.32-60.05,40.59-79.82c21.79-17.75,52.8-25.88,87.31-22.87l.91.08c45.54,4.2,81.87,40.77,86.38,86.95c2.44,24.93,8.86,49.21,19.11,72.23c2.48-2.07,5.16-3.92,8.11-5.49c17.18-9.17,39.62-6.91,68.62,6.91c2.24,1.07,4.47,2.16,6.69,3.26.56-1.16,1.08-2.35,1.56-3.57l.31-.8c.55-1.39,1.11-2.78,1.68-4.16-.78-.23-1.56-.46-2.34-.71-11.48-3.69-20.68-9.71-26.61-17.39-13.94-18.07-9.35-43.65-1.18-60.07c19.58-39.34,60.62-58.41,100.31-76.86c21.46-9.97,43.65-20.29,62.41-33.71c9.07-6.49,19.35-15.87,23.7-27.2-3.74,3.1-7.68,5.94-11.79,8.49-20.34,12.63-44.81,18.84-75.18,18.84-14.77,0-30.93-1.47-48.69-4.38-14.29-2.34-30.62-5.65-43.64-15.2-12.69-9.32-20.6-24.1-22.28-41.64-1.91-19.92,4.6-40.08,17.41-53.92c22.68-24.52,62.28-32.74,98.52-20.47c29.3,9.92,56.31,31.71,80.28,64.77c6.07,8.37,11.79,17.48,13.18,27.72c33.23-37.35,38.53-95.76,31.54-139.75-1.65-10.39-4.05-21.12-10.38-29.16-10.01-12.73-33.31-20.28-62.81-8.46-9.01,3.61-17.8,8.41-26.29,13.06-12.34,6.75-25.1,13.72-39.07,17.39-16.91,4.44-35.75,4.04-54.77-1.13-5.49,7.2-12.38,13.13-20.07,16.91-25.43,12.51-58.59,10.48-98.54-6.02-8.38-3.46-17.76-7.85-23.15-16.27-10.51-16.44,0-38.13,14.19-51.32c3.7-3.44,7.7-6.7,11.57-9.85c10.23-8.33,19.89-16.2,24.92-27.38c8-17.81.82-42.09-16.7-56.49-6.34-5.21-13.79-9.33-22.29-12.35.14.49.28.98.41,1.47c6.44,23.45,6.56,42.29.37,57.59-11.4,28.18-45.1,45.66-90.15,46.77-9.1.23-18.63-.17-26.77-4.52-8.4-4.49-13.33-12.08-15.98-17.65-5.51-11.56-6.38-25.48-2.43-39.2C98.32,111.4,106,99.45,116.21,90.72c22.61-19.32,52.76-23.16,74.05-22.97c10.76.09,20.67,1.19,29.69,3.27-4.7-13-10.9-24.7-18.23-34.31-11.08-14.51-24.25-23.78-39.16-27.55-24.39-6.16-24.99-12.49,1.47-5.82c16.25,4.1,30.53,14.1,42.46,29.72c8.43,11.05,15.43,24.68,20.46,39.81c10.9,3.32,20.35,8.25,28.26,14.75c9.12,7.5,16.11,17.83,19.66,29.1c3.78,11.97,3.31,24.22-1.3,34.48-5.61,12.49-16.28,21.17-26.6,29.58-3.8,3.09-7.72,6.29-11.28,9.59-12.44,11.56-21.88,30.16-13.22,43.7c4.44,6.95,12.85,10.85,20.38,13.96c38.29,15.81,69.79,17.89,93.61,6.18c6.24-3.07,11.89-7.72,16.56-13.37-14.36-4.71-32.35-13.95-39.68-31.58-3.95-9.5-3-21.62,2.4-30.89c4.43-7.59,11.16-12.29,18.94-13.23c7.81-.94,16.34,1.91,23.41,7.82c10.86,9.08,15.78,22.85,13.87,38.77-1.09,9.05-4.35,17.91-9.17,25.69c17.31,4.38,34.34,4.59,49.63.58c13.26-3.48,25.69-10.28,37.72-16.85c8.65-4.73,17.6-9.62,26.94-13.36c23.33-9.35,53.95-9.78,69.76,10.33c7.17,9.11,9.8,20.73,11.58,31.92c5.08,31.91,3.27,64.85-5.07,92.76-6.79,22.71-17.78,41.85-32.28,56.48-1.88,17.05-15.98,30.63-28.14,39.33-19.22,13.75-41.66,24.18-63.37,34.28-40.54,18.84-78.82,36.64-97.47,74.09-7.4,14.87-11.69,37.86.56,53.73c5.18,6.72,13.38,12.02,23.7,15.34.96.31,1.93.6,2.9.87c29.81-66.66,90.8-118.85,161.48-137.44c18.36-4.83,31.77-2.47,38.76,6.81c4.88,6.48,5.55,14.8,1.96,24.06-2.66,6.86-7.77,14.39-14.37,21.22-24.91,25.76-53.09,48.21-83.75,66.74-38.17,23.07-71.95,31.66-100.58,25.63-.68,1.62-1.35,3.25-1.99,4.89l-.3.77c-.55,1.41-1.15,2.78-1.8,4.12c38.34,19.89,72.86,45.79,102.78,77.14c2.35,2.46,4.72,5.02,7.06,7.68c1.51-3.39,3.19-6.73,5.04-9.99c1.38-2.43,2.81-4.82,4.31-7.17-3.75-4.04-7.11-8.25-10-12.58-12.15-18.16-15.4-37.26-9.4-55.23c1.67-5,4.85-9.21,8.97-11.86c4.55-2.93,9.72-3.72,14.95-2.3c9.66,2.63,17.24,11.77,21.11,19.45s6.51,15.68,8.16,23.88c18.28-15.46,39.77-27.11,62.93-33.74c19.58-5.61,46.04-5.38,56.14,13.72c5.94,11.22,3.4,24.46.56,35.98-2.54,10.28-5.62,21.42-10.87,31.43c19.55,4.68,37.12,13.82,50.57,27c18.16,17.79,27.59,48.58,11.14,67.31-5.21,5.93-12.22,9.71-19.28,12.45c14.27,1.43,23.51,6.73,26.78,15.39c2.22,5.89,1.05,12.26-.02,16.53-5.9,23.46-22.85,44.2-53.36,65.24-5.57,3.84-11.25,7.52-17.03,11.02c4.36,1.96,10.36,5.79,10.22,12.96c25.21-7.19,47.88-7.82,68.55-2l2.88.81-.8,2.88c-11.89,42.84-53.04,69.68-90.67,91.47-34.08,19.73-74.54,41.75-116.26,55.45-21.25,6.98-41.4,11.36-60.67,13.16-9.74,14.4-18.58,29.4-26.42,44.9-5.46,10.78-10.33,25.45-2.56,34.05c3.93,4.35,10.35,6.08,16.12,7.19c62.96,12.19,124.74-18.41,187.77-53.62c18.71-10.46,42.5-24.68,60.52-41.99c19.39-18.64,29.47-37.94,30.82-59.01l5.99.38c-3.1,48.53-49.46,80.75-94.4,105.86-54.12,30.24-107.4,57.12-161.81,57.12v.01ZM388.2,973.84c-13.6,11.84-25.56,25.22-35.51,39.85-14.59,21.47-22.06,50.04-5.88,65.5c6.44,6.15,15.5,8.9,23.52,10.78c18.75,4.39,38.24,5.77,58.77,4.12c24.84-36.19,55.3-68.57,89.89-95.6-22.44,5.49-45.55,8.34-68.72,8.34h-.42c-8.84-.01-21.24-1.12-26.89-10.55-3.63-6.07-2.87-13.49-1.98-18.54.07-.38.14-.77.21-1.15-11.03-.38-22.04-1.29-33-2.73l.01-.02Zm146.47,20.33c-37.71,27.37-70.89,61.03-97.72,99.13c17.3-2.01,35.35-6.13,54.31-12.35c41.2-13.53,81.32-35.36,115.13-54.94c35.73-20.69,74.69-45.96,87.03-84.97-19.76-4.9-41.56-3.65-65.91,3.83-1.03,1.79-2.46,3.39-4.2,4.69-26.71,19.87-56.85,34.93-88.63,44.61h-.01ZM427.28,976.72c-.14.67-.27,1.35-.39,2.03-.72,4.11-1.39,10.07,1.22,14.42c3.1,5.19,10.01,7.61,21.75,7.63h.42c27.69,0,55.27-4.14,81.69-12.08c15.93-11.5,32.64-21.9,50.01-31.05c14.43-7.6,28.12-13.5,41.14-17.7.05-.18.09-.35.13-.53.92-4.35-1.78-7.25-9.3-9.99-.43-.16-.87-.32-1.31-.47-55.97,32.27-120.76,48.86-185.36,47.75v-.01Zm184.53-26.3c-8.7,3.45-17.7,7.64-27.04,12.56-10.74,5.66-21.23,11.8-31.43,18.39c20.59-8,40.26-18.38,58.46-30.95h.01ZM428.74,970.75c61.27.87,122.68-14.55,176.25-44.33-42.56-13.29-90.33-12.67-135.61,1.93-8.2,2.64-16.19,5.7-23.94,9.16-7.26,10.12-13.29,21.22-16.7,33.24Zm-34.25-2.18c9.32,1.07,18.69,1.75,28.05,2.04c2.47-9.41,6.53-18.69,12.27-28.05-14.47,7.33-28,16.06-40.32,26.01Zm-36.18-16.62c.42,1.59,1.03,3.1,1.89,4.5c4.31,6.99,13.9,9.28,22.7,10.6c1.14.17,2.29.34,3.44.5c16.37-13.9,34.94-25.66,55.12-34.81c7.74-10.54,17.65-21.28,31.01-33.63c28.65-26.49,57.9-46.99,86.94-60.95c6.63-3.19,13.26-6.03,19.85-8.53-25.89-.86-51.62-6.03-75.94-15.45-4.99-1.93-10.31-4.19-15.45-7.09-5.29,14.35-13.35,28.11-21.53,40.72-20.65,31.83-46.71,67.56-83.44,91.24-7.73,4.98-15.96,9.29-24.58,12.9h-.01ZM281.87,793.78c-38.24,0-76.13,3.58-112.24,15.52-11.42,3.78-25.49,9.57-32.91,20.85-12.59,19.14-2.12,45.47,11.88,63.72c24.89,32.46,64.27,55.43,108.05,63.04c32.68,5.68,65.94,2.46,95-8.75-.27-3.46-.05-6.95.28-10.22c4.6-45.19,27.72-90.11,70.54-136.79-17.88-.78-36.14-2.06-53.81-3.31-28.71-2.02-57.86-4.07-86.79-4.07v.01Zm148.54,7.63c-44.17,47.07-67.93,92.07-72.51,137.14-.24,2.4-.42,4.84-.37,7.21c7.73-3.34,15.13-7.27,22.1-11.76c35.77-23.07,61.35-58.17,81.66-89.46c8.2-12.63,16.27-26.42,21.35-40.69-3.34-2.28-6.51-4.9-9.35-7.96-.29-.32-.58-.64-.87-.96-12.55,5.63-27.55,6.74-42.01,6.48Zm168.85,28.02c-34.77,9.79-76.46,31.29-122.73,74.07-7.74,7.15-16.01,15.29-23.59,24.36c4.79-1.89,9.66-3.63,14.61-5.22c48.31-15.58,99.44-15.63,144.47-.24c7.09-4.17,14.04-8.59,20.82-13.27c29.24-20.17,45.43-39.8,50.95-61.77.88-3.49,1.86-8.64.23-12.95-3.2-8.48-14.59-11.04-23.58-11.7-4.72-.35-9.77-.5-15.12-.38-15.1,3.92-30.55,6.28-46.05,7.1h-.01ZM489.82,801.29c5.14,3.01,10.57,5.32,15.65,7.29c29.45,11.41,61.04,16.41,92.37,14.92c15.78-4.42,31.38-6.82,46.73-7.17c2.8-.74,5.59-1.53,8.37-2.38c9.14-2.79,18.46-6.36,24.68-13.44c14.13-16.09,5.38-43.19-10.83-59.06-13.08-12.81-30.32-21.58-49.51-25.88-2.44,3.81-5.28,7.39-8.62,10.6-23.97,23.02-62.09,17.27-90,4.45-3.69,1.89-7.56,4.03-11.63,6.45-1.04,4.32-2.14,8.58-3.27,12.76-2.49,9.21-5.17,18.14-9.77,25.92-.01,8.62-1.57,17.18-4.17,25.55v-.01Zm-11.9-9.23c2.04,2.16,4.28,4.08,6.65,5.81c1.29-4.42,2.26-8.88,2.83-13.36-2.86,3-6.05,5.49-9.48,7.55Zm-16.99-20.47c-5.78,5.16-11.8,10.81-18.07,17.02-2.3,2.28-4.55,4.55-6.75,6.82c11.39-.13,22.79-1.39,32.52-5.42-3.66-5.42-6.24-11.62-7.7-18.43v.01Zm5.31-4.65c1.09,7.41,3.59,14.37,7.83,20.41c3.49-2,6.68-4.47,9.47-7.5c1.65-1.79,3.11-3.72,4.41-5.77-.09-3.9-.53-7.8-1.38-11.7-.71-3.27-1.7-6.44-2.9-9.52-5.54,4.17-11.35,8.84-17.44,14.08h.01Zm22.42-17.76c1.59,3.82,2.88,7.79,3.78,11.92.21.96.4,1.92.56,2.87c1.96-4.97,3.49-10.28,4.96-15.71.59-2.2,1.18-4.41,1.75-6.65-3.55,2.3-7.23,4.81-11.05,7.56v.01ZM470.4,730.27c-3.23,9.62-5.04,19.7-4.78,29.32c5.41-4.55,10.59-8.65,15.57-12.37-2.96-6.02-6.7-11.67-10.79-16.95Zm2.45-6.57c4.97,6.11,9.61,12.74,13.25,19.93c5.49-3.92,10.71-7.37,15.66-10.4.81-3.47,1.56-6.97,2.25-10.49-8.04-4.98-15.41-10.7-21.85-16.93-1.17,1.88-2.31,3.79-3.4,5.72-2.19,3.86-4.18,7.94-5.91,12.16v.01Zm52.89,3.46c25.56,10.57,58.21,14.41,78.76-5.33c2.39-2.29,4.5-4.82,6.39-7.52-19.79-3.34-41.33-2.08-62.34,4.23-6.44,1.93-14.02,4.57-22.81,8.61v.01Zm-16.24-1.2c-.21,1.04-.43,2.08-.65,3.11c1.07-.6,2.12-1.18,3.16-1.75-.84-.45-1.68-.9-2.51-1.37v.01Zm1.19-6.22c1.56.9,3.13,1.77,4.72,2.6c1.03.54,2.09,1.07,3.16,1.59c11.09-5.48,20.48-8.8,28.25-11.13c22.74-6.83,46.12-7.98,67.47-3.96c5.45-9.82,8.59-21.14,11.16-31.56c2.58-10.45,4.91-22.38-.04-31.74-5.27-9.96-21.31-18.75-49.19-10.76-23.5,6.73-45.21,18.82-63.42,34.9c2.22,16.42.86,33.45-2.12,50.06h.01Zm-25.16-19.08c5.81,5.72,12.47,11.05,19.66,15.71c2.35-13.88,3.47-27.98,2.16-41.64-8.13,7.85-15.46,16.54-21.82,25.92v.01ZM78.54,693.74c24.32,7.15,51.41,13.6,78.25,12.75c33.6-1.04,62.78-13.9,80.04-35.29c4.37-5.42,8.23-11.65,11.97-17.67c4.95-7.99,10-16.14,16.47-22.86-11.01-24.17-17.89-49.71-20.45-75.97-4.23-43.32-38.28-77.62-80.96-81.56l-.85-.08c-32.97-2.87-62.45,4.78-83.03,21.54-21.26,17.31-31.96,42.33-37.32,69.87c30.72-21.29,71.96-27.94,107.15-14.94c16.2,5.98,27.88,14.7,34.72,25.92c13.59,22.27,5.44,50.65-5.66,68.2-10.14,16.02-24.83,29.25-42.47,38.26s-36.96,13.14-55.89,11.97c-.63-.04-1.28-.09-1.97-.15v.01Zm398.81-68.99c-2.33,0-4.57.68-6.67,2.04-2.97,1.91-5.29,5.01-6.53,8.71-3.76,11.26-5.3,29.07,8.69,50c2.44,3.65,5.28,7.25,8.45,10.74c7.26-10.54,15.71-20.21,25.11-28.84-1.48-8.92-4.11-17.58-8.26-25.8-4.14-8.2-10.94-14.62-17.33-16.36-1.17-.32-2.33-.48-3.46-.48v-.01ZM41.17,572.99c-3.17,20.53-3.77,42.13-3.84,62.75-.05,13.8.44,25.99,6.89,35.41c9,13.15,26.83,16.14,36.65,16.75c36.18,2.26,73.53-16.82,92.92-47.45c10.19-16.09,17.77-41.94,5.61-61.86-6.12-10.03-16.78-17.91-31.68-23.42-35.3-13.04-77.02-5.23-106.56,17.82h.01Zm-6.89,5.86c-4.74,4.4-9.08,9.24-12.91,14.49-11.28,15.47-20.16,39.14-11.26,59.2c6.74,15.19,21.41,24.46,38.35,31.27-3.46-2.46-6.61-5.51-9.19-9.28-8.03-11.73-7.98-26.75-7.94-38.82.06-18.64.55-38.06,2.95-56.86Zm238.25,53.13c8.05,15.69,23.83,25,41.56,24.41c15.08-.5,28.27-8,36.26-20.14-2.09-1.04-4.19-2.07-6.3-3.07-27.16-12.94-47.83-15.24-63.21-7.03-3.04,1.62-5.78,3.59-8.3,5.83h-.01Zm92.69-13.63c26.85,5.21,58.75-3.22,95.02-25.14c30.22-18.26,57.99-40.39,82.54-65.78c10.92-11.29,19.79-27.07,11.93-37.5-6.83-9.07-21.41-7.52-32.44-4.62-68.58,18.04-127.81,68.51-157.06,133.04h.01Zm28.27-319.71c-23.47,0-45.55,8.48-60.09,24.19-11.67,12.61-17.59,31.03-15.84,49.28c1.51,15.81,8.56,29.08,19.86,37.37c11.95,8.77,27.46,11.89,41.06,14.12c52.76,8.66,90.8,4.33,119.73-13.63c6.29-3.9,11.96-8.36,17.07-13.27.04-.85.03-1.71,0-2.57-.47-9.93-6.2-19.11-12.33-27.55-23.23-32.03-49.25-53.1-77.34-62.61-10.6-3.59-21.5-5.33-32.11-5.33h-.01ZM337.7,171c-.77,0-1.53.04-2.28.14-5.88.71-11.02,4.37-14.48,10.3-4.5,7.71-5.3,17.74-2.05,25.56c6.69,16.08,24.01,24.44,37.36,28.61.18.06.36.11.54.17c4.87-7.38,8.17-15.95,9.22-24.72c1.66-13.83-2.51-25.71-11.76-33.45-5.1-4.27-11.02-6.6-16.56-6.6l.01-.01ZM188.84,73.77c-20.18,0-48,3.83-68.72,21.54-19.85,16.97-27.46,45.21-17.69,65.71c2.27,4.76,6.43,11.21,13.4,14.94c7.25,3.88,16.08,4,23.79,3.81c15.96-.39,69.22-4.65,84.73-43.02c5.68-14.03,5.48-31.62-.6-53.75-.48-1.75-.99-3.49-1.52-5.21-9.53-2.57-20.22-3.92-32.01-4.02-.46,0-.92,0-1.38,0Z" fill="#f15624" stroke="#393939" stroke-miterlimit="10"/></clipPath></g></svg>
