<?xml version="1.0" encoding="utf-8"?>
<!-- Generator: Adobe Illustrator 28.0.0, SVG Export Plug-In . SVG Version: 6.00 Build 0)  -->
<svg version="1.1" id="Layer_2_00000173153123586699700340000007634388255664191373_"
	 xmlns="http://www.w3.org/2000/svg" xmlns:xlink="http://www.w3.org/1999/xlink" x="0px" y="0px" viewBox="0 0 98.3 98.3"
	 style="enable-background:new 0 0 98.3 98.3;" xml:space="preserve">
<style type="text/css">
	.st0{fill:#F1D335;}
	.st1{fill:#1E1E1C;}
</style>
<path class="st0" d="M96.7,49.1c0,24.2-18,44.1-41.4,47.1l-0.1,0c-2,0.3-4,0.4-6.1,0.4c-5.8,0-11.4-1-16.5-2.9
	C22.3,89.9,13.7,82.6,8.2,73.3C4,66.2,1.6,57.9,1.6,49.1c0-0.7,0-1.3,0-1.9l0,0c0.4-9,3.2-17.3,7.8-24.3l0,0
	c5.4-8.1,13.2-14.5,22.4-18.1C37.2,2.7,43,1.6,49.1,1.6c6.7,0,13.1,1.4,18.9,3.9c0,0,0,0,0,0c2.5,1.1,4.8,2.3,7,3.8c1.5,1,1.5,1,0,0
	C88.1,17.8,96.7,32.5,96.7,49.1L96.7,49.1z"/>
<polygon class="st1" points="48.8,49.2 32.3,62 15,50.3 20.8,30.3 41.7,29.6 "/>
<path class="st1" d="M75.7,23.7l-20-5.9L50.3,5.6l5.4-1c10-1.8,20,2.7,25.3,11.3l0,0L75.7,23.7L75.7,23.7z"/>
<path class="st1" d="M90.2,61.1l-4.1,11.2l-17,2.1l-2.5-18.9L80.3,42l5.7,4.5C90.4,49.9,92.1,55.8,90.2,61.1L90.2,61.1z"/>
<path class="st1" d="M33.4,6.3c0,0-13.9,9.3-15.1,11.4c-5.5,2.6-8.7,5.1-8.8,5.2c5.4-8.1,13.2-14.5,22.4-18.1
	C32.8,5.5,33.4,6.3,33.4,6.3L33.4,6.3z"/>
<path class="st1" d="M55.3,96.3L55.3,96.3c-2.1,0.3-4.1,0.4-6.1,0.4c-5.8,0-11.4-1-16.5-2.9l-9.1-7.6l11.1-5.6c0,0,17,6,20.5,5.6
	C55.5,93.5,55.3,96.3,55.3,96.3L55.3,96.3z"/>
<path class="st1" d="M9.5,74c-0.4-0.1-0.9-0.3-1.3-0.7C4,66.2,1.6,57.9,1.6,49.1c0-0.7,0-1.3,0-1.9c1.1,3.4,2.8,7.6,4.2,8.5
	C5.1,59.2,7.4,72.7,9.5,74z"/>
</svg>
